<svg width="696" height="498" viewBox="0 0 696 498" fill="none" xmlns="http://www.w3.org/2000/svg">
<rect y="1.42627" width="694" height="495" fill="#F8F1F1"/>
<rect y="1.42627" width="694" height="51" fill="#E8E3E4"/>
<rect x="7" y="9.42627" width="681" height="38" fill="url(#paint0_linear_410_69)"/>
<rect y="1.42627" width="3" height="495" fill="white"/>
<rect y="3.42627" width="3" height="694" transform="rotate(-90 0 3.42627)" fill="white"/>
<rect x="694" y="496.426" width="3" height="493" transform="rotate(180 694 496.426)" fill="#E8D9D9"/>
<rect x="694" y="493.426" width="3" height="691" transform="rotate(90 694 493.426)" fill="#E8D9D9"/>
<path d="M694 3.42627L690.978 3.4262L693.978 0.426268L694 3.42627Z" fill="#E8D9D9"/>
<path d="M2.9999 496.427L-7.19709e-09 496.426L2.99995 493.426L2.9999 496.427Z" fill="#E8D9D9"/>
<g clip-path="url(#clip0_410_69)">
<rect x="16" y="21" width="29" height="14" fill="#CB6A6B"/>
<rect x="16" y="21" width="29" height="14" fill="#CB6A6B"/>
<rect x="16" y="21" width="29" height="14" fill="#CB6A6B"/>
<rect x="16" y="21" width="29" height="14" fill="#CB6A6B"/>
<rect x="16" y="21" width="29" height="14" fill="#CB6A6B"/>
<path d="M30.4905 25.7239C30.186 25.8953 29.814 25.8953 29.5095 25.7239L16.004 18.1214C15.1074 17.6167 15.4657 16.25 16.4945 16.25L43.5055 16.25C44.5343 16.25 44.8926 17.6167 43.996 18.1214L30.4905 25.7239Z" fill="#CB6A6B"/>
<path d="M13.6365 15.1818H15.2728V13.5454H44.7274V15.1818H46.3637V36.4545H44.7274V38.0909H15.2728V36.4545H13.6365V15.1818ZM16.9092 34.8181H43.091V21.7272H41.4547V23.3636H38.1819V25H34.9092V26.6363H31.6365V28.2727H28.3637V26.6363H25.091V25H21.8183V23.3636H18.5456V21.7272H16.9092V34.8181ZM43.091 16.8181H16.9092V18.4545H20.1819V20.0909H23.4547V21.7272H26.7274V23.3636H33.2728V21.7272H36.5456V20.0909H39.8183V18.4545H43.091V16.8181Z" fill="white"/>
</g>
<path d="M59.44 32.288V16.856H66.232V19.04H68.392V21.2H70.6V27.944H68.392V30.128H66.232V32.288H59.44ZM61.864 29.888H65.992V27.704H68.152V21.44H65.992V19.28H61.864V29.888ZM75.6865 32.288V30.128H73.5025V23.384H75.6865V21.2H82.4545V23.384H84.6625V29.888H86.8465V32.288H84.4225V30.128H82.4545V32.288H75.6865ZM75.9265 29.888H82.2145V23.6H75.9265V29.888ZM89.0181 32.288V21.2H97.9701V23.384H100.178V32.288H97.7301V23.6H91.4421V32.288H89.0181ZM104.796 32.288V30.128H102.612V23.384H104.796V21.2H111.564V23.384H113.772V25.76H111.324V23.6H105.036V29.888H111.324V27.704H113.772V30.128H111.564V32.288H104.796ZM116.674 32.288V21.2H119.098V32.288H116.674ZM116.674 19.28V16.856H119.098V19.28H116.674ZM121.526 32.288V21.2H130.478V23.384H132.686V32.288H130.238V23.6H123.95V32.288H121.526ZM137.304 36.632V34.472H135.12V32.072H137.544V34.232H143.856V30.128H137.304V27.944H135.12V23.384H137.304V21.2H144.096V23.384H146.28V34.472H144.096V36.632H137.304ZM137.544 27.704H143.856V23.6H137.544V27.704ZM156.171 32.288V30.128H153.987V19.04H156.171V16.856H162.939V19.04H165.147V23.6H162.939V25.52H165.147V30.128H162.939V32.288H156.171ZM156.411 29.888H162.699V25.76H158.331V23.384H162.699V19.28H156.411V29.888ZM169.765 32.288V30.128H167.581V23.384H169.765V21.2H176.533V23.384H178.741V29.888H180.925V32.288H178.501V30.128H176.533V32.288H169.765ZM170.005 29.888H176.293V23.6H170.005V29.888ZM184.812 32.288V30.128H182.628V16.856H185.052V21.2H191.58V23.384H193.788V30.128H191.58V32.288H184.812ZM185.052 29.888H191.34V23.6H185.052V29.888ZM198.405 36.632V34.472H196.221V32.072H198.645V34.232H204.957V30.128H198.405V27.944H196.221V21.2H198.645V27.704H204.957V21.2H207.381V34.472H205.197V36.632H198.405ZM214.2 27.2V24.776H220.968V27.2H214.2ZM227.885 32.288V19.04H230.069V16.856H232.469V19.04H234.677V23.384H236.597V19.04H238.805V16.856H241.229V19.04H243.389V32.288H240.989V19.28H239.045V23.6H236.837V30.128H234.437V23.6H232.229V19.28H230.309V32.288H227.885ZM248.468 32.288V30.128H246.284V23.384H248.468V21.2H255.236V23.384H257.444V25.76H254.996V23.6H248.708V25.52H253.076V27.944H248.708V29.888H254.996V27.68H257.444V30.104H255.236V32.288H248.468ZM260.346 32.288V29.888H269.058V27.944H262.53V25.76H260.346V23.384H262.53V21.2H271.506V23.6H262.77V25.52H269.298V27.704H271.506V30.128H269.298V32.288H260.346ZM273.94 32.288V29.888H282.652V27.944H276.124V25.76H273.94V23.384H276.124V21.2H285.1V23.6H276.364V25.52H282.892V27.704H285.1V30.128H282.892V32.288H273.94ZM289.718 32.288V30.128H287.534V23.384H289.718V21.2H296.486V23.384H298.694V29.888H300.878V32.288H298.454V30.128H296.486V32.288H289.718ZM289.958 29.888H296.246V23.6H289.958V29.888ZM304.765 36.632V34.472H302.581V32.072H305.005V34.232H311.317V30.128H304.765V27.944H302.581V23.384H304.765V21.2H311.557V23.384H313.741V34.472H311.557V36.632H304.765ZM305.005 27.704H311.317V23.6H305.005V27.704ZM318.101 32.288V30.128H315.917V23.384H318.101V21.2H324.869V23.384H327.077V25.76H324.629V23.6H318.341V25.52H322.709V27.944H318.341V29.888H324.629V27.68H327.077V30.104H324.869V32.288H318.101ZM341.772 33.464V31.28H339.588V18.032H341.772V15.872H346.38V18.272H342.012V31.04H346.38V33.464H341.772ZM348.565 32.288V19.04H350.749V16.856H357.517V19.04H359.725V25.76H357.517V27.944H356.461V29.888H358.621V32.288H356.221V30.128H354.013V27.944H350.989V32.288H348.565ZM350.989 25.52H357.277V19.28H350.989V25.52ZM364.812 32.288V30.128H362.628V21.2H365.052V29.888H371.34V21.2H373.788V30.128H371.58V32.288H364.812ZM376.456 32.288V29.888H385.168V27.944H378.64V25.76H376.456V23.384H378.64V21.2H387.616V23.6H378.88V25.52H385.408V27.704H387.616V30.128H385.408V32.288H376.456ZM392.233 36.632V34.472H390.049V32.072H392.473V34.232H398.785V30.128H392.233V27.944H390.049V21.2H392.473V27.704H398.785V21.2H401.209V34.472H399.025V36.632H392.233ZM404.112 32.288V23.384H406.296V21.2H413.064V23.384H415.272V25.76H412.824V23.6H406.536V32.288H404.112ZM419.632 32.288V30.128H417.448V23.384H419.632V21.2H426.4V23.384H428.608V29.888H430.792V32.288H428.368V30.128H426.4V32.288H419.632ZM419.872 29.888H426.16V23.6H419.872V29.888ZM432.963 32.288V21.2H435.387V32.288H432.963ZM432.963 19.28V16.856H435.387V19.28H432.963ZM437.815 32.288V21.2H446.767V23.384H448.975V32.288H446.527V23.6H440.239V32.288H437.815ZM451.158 33.464V31.04H455.526V18.272H451.158V15.872H455.766V18.032H457.95V31.28H455.766V33.464H451.158Z" fill="white"/>
<rect x="604" y="16" width="20" height="20" fill="#F6F6F6"/>
<rect x="624" y="35.5" width="0.5" height="19" transform="rotate(180 624 35.5)" fill="#E8D9D9"/>
<rect x="624" y="35.5" width="0.5" height="20" transform="rotate(90 624 35.5)" fill="#E8D9D9"/>
<rect x="604" y="16.5" width="0.5" height="19" fill="white"/>
<rect x="604" y="16.5" width="0.5" height="20" transform="rotate(-90 604 16.5)" fill="white"/>
<rect x="630" y="16" width="20" height="20" fill="#F6F6F6"/>
<rect x="650" y="35.5" width="0.5" height="19" transform="rotate(180 650 35.5)" fill="#E8D9D9"/>
<rect x="650" y="35.5" width="0.5" height="20" transform="rotate(90 650 35.5)" fill="#E8D9D9"/>
<rect x="630" y="16.5" width="0.5" height="19" fill="white"/>
<rect x="630" y="16.5" width="0.5" height="20" transform="rotate(-90 630 16.5)" fill="white"/>
<rect x="656" y="16" width="20" height="20" fill="#F6F6F6"/>
<rect x="676" y="35.5" width="0.5" height="19" transform="rotate(180 676 35.5)" fill="#E8D9D9"/>
<rect x="676" y="35.5" width="0.5" height="20" transform="rotate(90 676 35.5)" fill="#E8D9D9"/>
<rect x="656" y="16.5" width="0.5" height="19" fill="white"/>
<rect x="656" y="16.5" width="0.5" height="20" transform="rotate(-90 656 16.5)" fill="white"/>
<rect x="607" y="30" width="14" height="3" fill="#B45572"/>
<path d="M660 21.7333L672 33V31.2667L660 20V21.7333Z" fill="#B45572"/>
<path d="M672 22.5L660 33.5V31.2667L672 20V22.5Z" fill="#B45572"/>
<path d="M660 22.5L672 33.5V31.2667L660 20V22.5Z" fill="#B45572"/>
<rect x="633" y="20" width="14" height="3" fill="#B45572"/>
<rect x="633" y="20" width="1" height="12" fill="#B45572"/>
<rect x="646" y="20" width="1" height="12" fill="#B45572"/>
<rect x="634" y="32" width="1" height="12" transform="rotate(-90 634 32)" fill="#B45572"/>
<rect x="10" y="60" width="675" height="26" fill="url(#paint1_linear_410_69)"/>
<rect width="3" height="31" transform="matrix(1 0 -1.43787e-05 -1 684.995 88)" fill="#E8D9D9"/>
<rect width="2.99998" height="681" transform="matrix(0 -1 -1 -3.07629e-08 688 88)" fill="#E8D9D9"/>
<rect x="7" y="60" width="3" height="28" fill="white"/>
<rect x="7" y="60" width="3" height="681" transform="rotate(-90 7 60)" fill="white"/>
<path d="M7 88L10 85V88H7Z" fill="#E8D9D9"/>
<path d="M685 60L688 57V60H685Z" fill="#E8D9D9"/>
<rect x="16" y="64" width="1.5" height="19" fill="#FFFDFD"/>
<rect x="17.5" y="64" width="1.5" height="19" fill="#B3AFAF"/>
<path d="M33.02 78.204V67.273H39.361V68.82H40.925V70.52H39.191V68.99H34.737V71.897H37.831V73.58H34.737V78.204H33.02ZM42.9809 78.204V70.35H44.6979V78.204H42.9809ZM42.9809 68.99V67.273H44.6979V68.99H42.9809ZM46.7495 78.204V67.273H48.4665V78.204H46.7495ZM51.733 78.204V76.674H50.186V71.897H51.733V70.35H56.527V71.897H58.091V73.58H56.357V72.05H51.903V73.41H54.997V75.127H51.903V76.504H56.357V74.94H58.091V76.657H56.527V78.204H51.733Z" fill="#8A2A47"/>
<line x1="32" y1="81.5" x2="39" y2="81.5" stroke="#8A2A47"/>
<path d="M74.567 78.204V76.674H73.02V68.82H74.567V67.273H79.361V68.82H80.925V70.52H79.191V68.99H74.737V71.897H77.831V73.58H74.737V76.504H79.191V74.957H80.925V76.674H79.361V78.204H74.567ZM84.5279 78.204V76.674H82.9809V71.897H84.5279V70.35H89.1689V67.273H90.8859V76.674H89.3219V78.204H84.5279ZM84.6979 76.504H89.1519V72.05H84.6979V76.504ZM92.9419 78.204V70.35H94.6589V78.204H92.9419ZM92.9419 68.99V67.273H94.6589V68.99H92.9419ZM99.2728 78.204V76.674H97.7428V72.05H96.1958V70.35H97.7428V67.273H99.4428V70.35H104.101V72.05H99.4428V76.504H103.931V74.957H105.648V76.674H104.101V78.204H99.2728Z" fill="#8A2A47"/>
<line x1="73" y1="81.5" x2="80" y2="81.5" stroke="#8A2A47"/>
<path d="M124.097 78.204V76.674H122.567V73.58H121.02V67.273H122.737V73.41H124.267V76.504H125.661V73.41H127.191V67.273H128.925V73.58H127.361V76.674H125.831V78.204H124.097ZM130.981 78.204V70.35H132.698V78.204H130.981ZM130.981 68.99V67.273H132.698V68.99H130.981ZM135.964 78.204V76.674H134.417V71.897H135.964V70.35H140.758V71.897H142.322V73.58H140.588V72.05H136.134V73.41H139.228V75.127H136.134V76.504H140.588V74.94H142.322V76.657H140.758V78.204H135.964ZM144.378 78.204V70.35H146.095V76.504H149.019V70.35H150.719V76.504H153.66V70.35H155.36V76.674H153.83V78.204H150.549V76.674H149.189V78.204H144.378Z" fill="#8A2A47"/>
<line x1="121" y1="81.5" x2="128" y2="81.5" stroke="#8A2A47"/>
<path d="M171.02 78.204V76.504H172.567V68.99H171.02V67.273H175.831V68.99H174.267V76.504H175.831V78.204H171.02ZM177.378 78.204V70.35H183.719V71.897H185.283V78.204H183.549V72.05H179.095V78.204H177.378ZM187.007 78.204V76.504H193.178V75.127H188.554V73.58H187.007V71.897H188.554V70.35H194.912V72.05H188.724V73.41H193.348V74.957H194.912V76.674H193.348V78.204H187.007ZM198.183 78.204V76.674H196.636V71.897H198.183V70.35H202.977V71.897H204.541V73.58H202.807V72.05H198.353V73.41H201.447V75.127H198.353V76.504H202.807V74.94H204.541V76.657H202.977V78.204H198.183ZM206.597 78.204V71.897H208.144V70.35H212.938V71.897H214.502V73.58H212.768V72.05H208.314V78.204H206.597ZM219.635 78.204V76.674H218.105V72.05H216.558V70.35H218.105V67.273H219.805V70.35H224.463V72.05H219.805V76.504H224.293V74.957H226.01V76.674H224.463V78.204H219.635Z" fill="#8A2A47"/>
<line x1="171" y1="81.5" x2="178" y2="81.5" stroke="#8A2A47"/>
<path d="M241.02 78.204V67.273H247.361V68.82H248.925V70.52H247.191V68.99H242.737V71.897H245.831V73.58H242.737V78.204H241.02ZM250.835 78.204V76.674H249.288V71.897H250.835V70.35H255.629V71.897H257.193V76.674H255.629V78.204H250.835ZM251.005 76.504H255.459V72.05H251.005V76.504ZM259.249 78.204V71.897H260.796V70.35H265.59V71.897H267.154V73.58H265.42V72.05H260.966V78.204H259.249ZM268.695 78.204V70.35H273.506V71.897H274.866V70.35H278.147V71.897H279.677V78.204H277.977V72.05H275.036V78.204H273.336V72.05H270.412V78.204H268.695ZM283.108 78.204V76.674H281.561V71.897H283.108V70.35H287.902V71.897H289.466V76.504H291.013V78.204H289.296V76.674H287.902V78.204H283.108ZM283.278 76.504H287.732V72.05H283.278V76.504ZM294.267 78.204V76.674H292.737V72.05H291.19V70.35H292.737V67.273H294.437V70.35H299.095V72.05H294.437V76.504H298.925V74.957H300.642V76.674H299.095V78.204H294.267Z" fill="#8A2A47"/>
<line x1="241" y1="81.5" x2="248" y2="81.5" stroke="#8A2A47"/>
<path d="M319.097 78.204V68.99H317.737V70.52H316.02V68.82H317.567V67.273H322.361V68.82H323.925V70.52H322.191V68.99H320.831V78.204H319.097ZM325.835 78.204V76.674H324.288V71.897H325.835V70.35H330.629V71.897H332.193V76.674H330.629V78.204H325.835ZM326.005 76.504H330.459V72.05H326.005V76.504ZM335.796 78.204V76.674H334.249V71.897H335.796V70.35H340.59V71.897H342.154V76.674H340.59V78.204H335.796ZM335.966 76.504H340.42V72.05H335.966V76.504ZM344.209 78.204V67.273H345.926V78.204H344.209ZM347.646 78.204V76.504H353.817V75.127H349.193V73.58H347.646V71.897H349.193V70.35H355.551V72.05H349.363V73.41H353.987V74.957H355.551V76.674H353.987V78.204H347.646Z" fill="#8A2A47"/>
<line x1="316" y1="81.5" x2="323" y2="81.5" stroke="#8A2A47"/>
<path d="M371.02 78.204V70.35H372.567V68.82H374.097V67.273H375.831V68.82H377.361V70.35H378.925V78.204H377.191V75.127H372.737V78.204H371.02ZM372.737 73.41H377.191V70.52H375.661V68.99H374.267V70.52H372.737V73.41ZM382.196 78.204V76.674H380.649V71.897H382.196V70.35H386.99V71.897H388.554V73.58H386.82V72.05H382.366V76.504H386.82V74.957H388.554V76.674H386.99V78.204H382.196ZM392.84 78.204V76.674H391.31V72.05H389.763V70.35H391.31V67.273H393.01V70.35H397.668V72.05H393.01V76.504H397.498V74.957H399.215V76.674H397.668V78.204H392.84ZM401.268 78.204V70.35H402.985V78.204H401.268ZM401.268 68.99V67.273H402.985V68.99H401.268ZM406.252 78.204V76.674H404.705V71.897H406.252V70.35H411.046V71.897H412.61V76.674H411.046V78.204H406.252ZM406.422 76.504H410.876V72.05H406.422V76.504ZM414.666 78.204V70.35H421.007V71.897H422.571V78.204H420.837V72.05H416.383V78.204H414.666ZM424.294 78.204V76.504H430.465V75.127H425.841V73.58H424.294V71.897H425.841V70.35H432.199V72.05H426.011V73.41H430.635V74.957H432.199V76.674H430.635V78.204H424.294Z" fill="#8A2A47"/>
<line x1="371" y1="81.5" x2="378" y2="81.5" stroke="#8A2A47"/>
<path d="M451.097 78.204V68.99H449.737V70.52H448.02V68.82H449.567V67.273H454.361V68.82H455.925V70.52H454.191V68.99H452.831V78.204H451.097ZM457.835 78.204V76.674H456.288V71.897H457.835V70.35H462.629V71.897H464.193V76.504H465.74V78.204H464.023V76.674H462.629V78.204H457.835ZM458.005 76.504H462.459V72.05H458.005V76.504ZM468.493 78.204V76.674H466.946V67.273H468.663V70.35H473.287V71.897H474.851V76.674H473.287V78.204H468.493ZM468.663 76.504H473.117V72.05H468.663V76.504ZM476.575 78.204V67.273H478.292V78.204H476.575ZM481.558 78.204V76.674H480.011V71.897H481.558V70.35H486.352V71.897H487.916V73.58H486.182V72.05H481.728V73.41H484.822V75.127H481.728V76.504H486.182V74.94H487.916V76.657H486.352V78.204H481.558Z" fill="#8A2A47"/>
<line x1="448" y1="81.5" x2="455" y2="81.5" stroke="#8A2A47"/>
<path d="M503.02 78.204V67.273H504.737V71.897H506.097V70.35H507.831V71.897H509.191V67.273H510.925V78.204H509.191V73.58H504.737V78.204H503.02ZM514.196 78.204V76.674H512.649V71.897H514.196V70.35H518.99V71.897H520.554V73.58H518.82V72.05H514.366V73.41H517.46V75.127H514.366V76.504H518.82V74.94H520.554V76.657H518.99V78.204H514.196ZM522.61 78.204V67.273H524.327V78.204H522.61ZM526.378 81.196V71.897H527.925V70.35H532.719V71.897H534.283V76.674H532.719V78.204H528.095V81.196H526.378ZM528.095 76.504H532.549V72.05H528.095V76.504Z" fill="#8A2A47"/>
<line x1="503" y1="81.5" x2="510" y2="81.5" stroke="#8A2A47"/>
<rect x="10" y="90" width="675" height="26" fill="url(#paint2_linear_410_69)"/>
<rect width="3" height="31" transform="matrix(1 0 -1.43787e-05 -1 684.995 118)" fill="#E8D9D9"/>
<rect width="2.99998" height="681" transform="matrix(0 -1 -1 -3.07629e-08 688 118)" fill="#E8D9D9"/>
<rect width="2.99998" height="681" transform="matrix(0 -1 -1 -3.07629e-08 688 118)" fill="#E8D9D9"/>
<rect x="7" y="90" width="3" height="28" fill="white"/>
<rect x="7" y="90" width="3" height="681" transform="rotate(-90 7 90)" fill="white"/>
<path d="M7 118L10 115V118H7Z" fill="#E8D9D9"/>
<path d="M685 90L688 87V90H685Z" fill="#E8D9D9"/>
<rect x="16" y="94" width="1.5" height="19" fill="#FFFDFD"/>
<rect x="17.5" y="94" width="1.5" height="19" fill="#B3AFAF"/>
<line x1="47" y1="111.5" x2="54" y2="111.5" stroke="#8A2A47"/>
<line x1="320" y1="111.5" x2="327" y2="111.5" stroke="#8A2A47"/>
<path d="M146.02 108.204V98.82H147.567V97.273H152.361V98.82H153.925V103.58H152.361V105.127H151.613V106.504H153.143V108.204H151.443V106.674H149.879V105.127H147.737V108.204H146.02ZM147.737 103.41H152.191V98.99H147.737V103.41ZM157.528 108.204V106.674H155.981V101.897H157.528V100.35H162.322V101.897H163.886V103.58H162.152V102.05H157.698V103.41H160.792V105.127H157.698V106.504H162.152V104.94H163.886V106.657H162.322V108.204H157.528ZM165.942 111.196V101.897H167.489V100.35H172.283V101.897H173.847V106.674H172.283V108.204H167.659V111.196H165.942ZM167.659 106.504H172.113V102.05H167.659V106.504ZM175.903 108.204V97.273H177.62V108.204H175.903ZM180.886 108.204V106.674H179.339V101.897H180.886V100.35H185.68V101.897H187.244V106.504H188.791V108.204H187.074V106.674H185.68V108.204H180.886ZM181.056 106.504H185.51V102.05H181.056V106.504ZM192.045 108.204V106.674H190.515V102.05H188.968V100.35H190.515V97.273H192.215V100.35H196.873V102.05H192.215V106.504H196.703V104.957H198.42V106.674H196.873V108.204H192.045ZM206.953 108.204V106.674H205.423V102.05H203.876V100.35H205.423V97.273H207.123V100.35H211.781V102.05H207.123V106.504H211.611V104.957H213.328V106.674H211.781V108.204H206.953ZM216.414 108.204V106.674H214.867V101.897H216.414V100.35H221.208V101.897H222.772V106.674H221.208V108.204H216.414ZM216.584 106.504H221.038V102.05H216.584V106.504ZM228.231 108.204V100.35H229.778V98.82H231.308V97.273H233.042V98.82H234.572V100.35H236.136V108.204H234.402V105.127H229.948V108.204H228.231ZM229.948 103.41H234.402V100.52H232.872V98.99H231.478V100.52H229.948V103.41ZM238.192 108.204V97.273H239.909V108.204H238.192ZM241.96 108.204V97.273H243.677V108.204H241.96Z" fill="#8A2A47"/>
<line x1="238" y1="111.5" x2="245" y2="111.5" stroke="#8A2A47"/>
<path d="M124.708 100.2V98L118 103.133L124.708 108.267V106.067L120.875 103.133L124.708 100.2ZM130.458 100.933V98L123.75 103.133L130.458 108.267V105.26C135.25 105.26 138.604 106.433 141 109C140.042 105.333 137.167 101.667 130.458 100.933Z" fill="#8A2A47"/>
<path d="M48.02 108.204V98.82H49.567V97.273H54.361V98.82H55.925V103.58H54.361V105.127H53.613V106.504H55.143V108.204H53.443V106.674H51.879V105.127H49.737V108.204H48.02ZM49.737 103.41H54.191V98.99H49.737V103.41ZM59.5279 108.204V106.674H57.9809V101.897H59.5279V100.35H64.3219V101.897H65.8859V103.58H64.1519V102.05H59.6979V103.41H62.7919V105.127H59.6979V106.504H64.1519V104.94H65.8859V106.657H64.3219V108.204H59.5279ZM67.9419 111.196V101.897H69.4889V100.35H74.2829V101.897H75.8469V106.674H74.2829V108.204H69.6589V111.196H67.9419ZM69.6589 106.504H74.1129V102.05H69.6589V106.504ZM77.9028 108.204V97.273H79.6198V108.204H77.9028ZM82.8863 111.281V109.751H81.3393V108.051H83.0563V109.581H87.5273V106.674H82.8863V105.127H81.3393V100.35H83.0563V104.957H87.5273V100.35H89.2443V109.751H87.6973V111.281H82.8863Z" fill="#8A2A47"/>
<path d="M35.0637 100.499V98L30 102.25L35.0637 106.501V103.999C39.2333 103.999 41.9127 103.999 43.9989 109C43.9989 106.501 44.2969 100.499 35.0637 100.499Z" fill="#8A2A47"/>
<path d="M290.02 108.204V97.273H296.361V98.82H297.925V100.52H296.191V98.99H291.737V101.897H294.831V103.58H291.737V108.204H290.02ZM299.835 108.204V106.674H298.288V101.897H299.835V100.35H304.629V101.897H306.193V106.674H304.629V108.204H299.835ZM300.005 106.504H304.459V102.05H300.005V106.504ZM308.249 108.204V101.897H309.796V100.35H314.59V101.897H316.154V103.58H314.42V102.05H309.966V108.204H308.249ZM317.877 108.204V100.35H319.594V106.504H322.518V100.35H324.218V106.504H327.159V100.35H328.859V106.674H327.329V108.204H324.048V106.674H322.688V108.204H317.877ZM331.942 108.204V106.674H330.395V101.897H331.942V100.35H336.736V101.897H338.3V106.504H339.847V108.204H338.13V106.674H336.736V108.204H331.942ZM332.112 106.504H336.566V102.05H332.112V106.504ZM341.9 108.204V101.897H343.447V100.35H348.241V101.897H349.805V103.58H348.071V102.05H343.617V108.204H341.9ZM352.893 108.204V106.674H351.346V101.897H352.893V100.35H357.534V97.273H359.251V106.674H357.687V108.204H352.893ZM353.063 106.504H357.517V102.05H353.063V106.504Z" fill="#8A2A47"/>
<path d="M280.936 106.501V109L286 104.75L280.936 100.499V103.001C276.767 103.001 274.087 103.001 272.001 98C272.001 100.499 271.703 106.501 280.936 106.501Z" fill="#8A2A47"/>
<rect x="102" y="92" width="2" height="21" fill="#FFFDFD"/>
<rect x="102" y="92" width="1" height="21" fill="#D9D9D9"/>
<rect x="256" y="92" width="2" height="21" fill="#FFFDFD"/>
<rect x="256" y="92" width="1" height="21" fill="#D9D9D9"/>
<path d="M13.14 152.228V140.011H20.227V141.74H21.975V143.64H20.037V141.93H15.059V145.179H18.517V147.06H15.059V152.228H13.14ZM22.3802 152.228V145.179H24.1092V143.45H29.4672V145.179H31.2152V147.06H29.2772V145.35H24.2992V152.228H22.3802ZM34.6669 152.228V150.518H32.9379V145.179H34.6669V143.45H40.0249V145.179H41.7729V150.518H40.0249V152.228H34.6669ZM34.8569 150.328H39.8349V145.35H34.8569V150.328ZM44.0707 152.228V143.45H49.4477V145.179H50.9677V143.45H54.6347V145.179H56.3447V152.228H54.4447V145.35H51.1577V152.228H49.2577V145.35H45.9897V152.228H44.0707ZM58.6361 150.461V148.542H60.5551V150.461H58.6361ZM58.6361 147.079V145.179H60.5551V147.079H58.6361Z" fill="#8A2A47"/>
<path d="M117.579 151.228V144.35H115.869V142.64H114.14V139.011H116.059V142.45H117.769V144.179H119.327V142.45H121.037V139.011H122.975V142.64H121.227V144.35H119.517V151.228H117.579ZM125.666 151.228V149.518H123.937V144.179H125.666V142.45H131.024V144.179H132.772V149.328H134.501V151.228H132.582V149.518H131.024V151.228H125.666ZM125.856 149.328H130.834V144.35H125.856V149.328ZM136.22 151.228V142.45H143.307V144.179H145.055V151.228H143.117V144.35H138.139V151.228H136.22ZM147.353 151.228V149.328H149.082V147.599H150.792V146.06H149.082V144.35H147.353V142.45H149.272V144.179H150.982V145.87H152.54V144.179H154.25V142.45H156.188V144.35H154.44V146.06H152.73V147.599H154.44V149.328H156.188V151.228H154.25V149.518H152.54V147.789H150.982V149.518H149.272V151.228H147.353ZM158.486 151.228V142.45H160.405V151.228H158.486ZM158.486 140.93V139.011H160.405V140.93H158.486ZM162.327 151.228V142.45H169.414V144.179H171.162V151.228H169.224V144.35H164.246V151.228H162.327Z" fill="#8A2A47"/>
<path d="M331.869 152.228V150.518H330.14V148.599H332.059V150.328H337.037V147.06H331.869V145.35H330.14V141.74H331.869V140.011H337.227V141.74H338.975V143.64H337.037V141.93H332.059V145.179H337.227V146.87H338.975V150.518H337.227V152.228H331.869ZM342.427 152.228V150.518H340.698V145.179H342.427V143.45H347.785V145.179H349.533V147.06H347.595V145.35H342.617V146.87H346.075V148.789H342.617V150.328H347.595V148.58H349.533V150.499H347.785V152.228H342.427ZM351.83 152.228V143.45H358.917V145.179H360.665V152.228H358.727V145.35H353.749V152.228H351.83ZM365.642 152.228V150.518H363.932V145.35H362.203V143.45H363.932V140.011H365.832V143.45H371.038V145.35H365.832V150.328H370.848V148.599H372.767V150.518H371.038V152.228H365.642ZM375.061 150.461V148.542H376.98V150.461H375.061ZM375.061 147.079V145.179H376.98V147.079H375.061Z" fill="#8A2A47"/>
<path d="M396.869 151.228V149.518H395.14V139.011H397.059V149.328H398.579V145.87H400.327V140.74H402.227V145.87H403.975V149.328H405.514V139.011H407.414V149.518H405.704V151.228H403.785V149.518H402.037V146.06H400.517V149.518H398.769V151.228H396.869ZM410.859 151.228V149.518H409.13V144.179H410.859V142.45H416.217V144.179H417.965V146.06H416.027V144.35H411.049V145.87H414.507V147.789H411.049V149.328H416.027V147.58H417.965V149.499H416.217V151.228H410.859ZM421.992 151.228V149.518H420.263V144.179H421.992V142.45H427.179V139.011H429.098V149.518H427.35V151.228H421.992ZM422.182 149.328H427.16V144.35H422.182V149.328ZM445.9 151.228V147.789H439.003V144.179H440.732V142.45H442.442V140.74H444.19V139.011H447.838V151.228H445.9ZM440.922 145.87H445.9V140.93H444.38V142.64H442.632V144.35H440.922V145.87ZM450.136 151.228L456.178 139.011H457.869L451.827 151.228H450.136ZM461.922 151.228V149.518H460.193V145.87H461.922V144.35H460.193V140.74H461.922V139.011H467.28V140.74H469.028V144.35H467.28V145.87H469.028V149.518H467.28V151.228H461.922ZM462.112 149.328H467.09V146.06H462.112V149.328ZM462.112 144.179H467.09V140.93H462.112V144.179ZM471.326 151.228L477.368 139.011H479.059L473.017 151.228H471.326ZM483.111 151.228V149.518H481.382V147.599H483.301V149.328H488.279V146.06H483.111V144.35H481.382V140.74H483.111V139.011H488.469V140.74H490.217V149.518H488.469V151.228H483.111ZM483.301 144.179H488.279V140.93H483.301V144.179ZM494.244 151.228V149.518H492.515V140.74H494.244V139.011H499.602V140.74H501.35V142.64H499.412V140.93H494.434V144.179H499.602V145.87H501.35V149.518H499.602V151.228H494.244ZM494.434 149.328H499.412V146.06H494.434V149.328ZM514.694 151.228V140.93H513.174V142.64H511.255V140.74H512.984V139.011H514.884V140.74H516.632V151.228H514.694ZM520.666 151.228V149.518H518.937V140.74H520.666V139.011H526.024V140.74H527.772V142.64H525.834V140.93H520.856V144.179H526.024V145.87H527.772V149.518H526.024V151.228H520.666ZM520.856 149.328H525.834V146.06H520.856V149.328ZM530.07 149.461V147.542H531.989V149.461H530.07ZM530.07 146.079V144.179H531.989V146.079H530.07ZM536.011 151.228V149.518H534.282V147.599H536.201V149.328H541.179V146.06H536.011V144.179H541.179V140.93H536.201V142.64H534.282V140.74H536.011V139.011H541.369V140.74H543.117V144.35H541.369V145.87H543.117V149.518H541.369V151.228H536.011ZM547.143 151.228V149.518H545.414V147.599H547.333V149.328H552.311V146.06H547.143V144.35H545.414V140.74H547.143V139.011H552.501V140.74H554.249V149.518H552.501V151.228H547.143ZM547.333 144.179H552.311V140.93H547.333V144.179ZM560.351 151.228V142.45H562.08V140.74H563.79V139.011H565.728V140.74H567.438V142.45H569.186V151.228H567.248V147.789H562.27V151.228H560.351ZM562.27 145.87H567.248V142.64H565.538V140.93H563.98V142.64H562.27V145.87ZM571.484 151.228V140.74H573.213V139.011H575.113V140.74H576.861V144.179H578.381V140.74H580.129V139.011H582.048V140.74H583.758V151.228H581.858V140.93H580.319V144.35H578.571V149.518H576.671V144.35H574.923V140.93H573.403V151.228H571.484Z" fill="#8A2A47"/>
<path d="M117.579 174.228V167.35H115.869V165.64H114.14V162.011H116.059V165.45H117.769V167.179H119.327V165.45H121.037V162.011H122.975V165.64H121.227V167.35H119.517V174.228H117.579ZM125.666 174.228V172.518H123.937V167.179H125.666V165.45H131.024V167.179H132.772V172.328H134.501V174.228H132.582V172.518H131.024V174.228H125.666ZM125.856 172.328H130.834V167.35H125.856V172.328ZM136.22 174.228V165.45H143.307V167.179H145.055V174.228H143.117V167.35H138.139V174.228H136.22ZM147.353 174.228V172.328H149.082V170.599H150.792V169.06H149.082V167.35H147.353V165.45H149.272V167.179H150.982V168.87H152.54V167.179H154.25V165.45H156.188V167.35H154.44V169.06H152.73V170.599H154.44V172.328H156.188V174.228H154.25V172.518H152.54V170.789H150.982V172.518H149.272V174.228H147.353ZM158.486 174.228V165.45H160.405V174.228H158.486ZM158.486 163.93V162.011H160.405V163.93H158.486ZM162.327 174.228V165.45H169.414V167.179H171.162V174.228H169.224V167.35H164.246V174.228H162.327Z" fill="#8A2A47"/>
<path d="M15.579 175.228V164.93H14.059V166.64H12.14V164.74H13.869V163.011H19.227V164.74H20.975V166.64H19.037V164.93H17.517V175.228H15.579ZM23.1092 175.228V173.518H21.3802V168.179H23.1092V166.45H28.4672V168.179H30.2152V173.518H28.4672V175.228H23.1092ZM23.2992 173.328H28.2772V168.35H23.2992V173.328ZM32.513 173.461V171.542H34.432V173.461H32.513ZM32.513 170.079V168.179H34.432V170.079H32.513Z" fill="#8A2A47"/>
<path d="M14.869 202.228V200.518H13.14V191.74H14.869V190.011H20.227V191.74H21.975V195.35H20.037V191.93H15.059V200.328H20.037V196.87H21.975V200.518H20.227V202.228H14.869ZM26.0018 202.228V200.518H24.2728V195.179H26.0018V193.45H31.3598V195.179H33.1078V197.06H31.1698V195.35H26.1918V200.328H31.1698V198.599H33.1078V200.518H31.3598V202.228H26.0018ZM35.4056 200.461V198.542H37.3246V200.461H35.4056ZM35.4056 197.079V195.179H37.3246V197.079H35.4056Z" fill="#8A2A47"/>
<path d="M113.14 230.228V218.011H118.517V219.74H120.227V221.45H121.975V226.789H120.227V228.518H118.517V230.228H113.14ZM115.059 228.328H118.327V226.599H120.037V221.64H118.327V219.93H115.059V228.328ZM126.002 230.228V228.518H124.273V223.179H126.002V221.45H131.36V223.179H133.108V228.328H134.837V230.228H132.918V228.518H131.36V230.228H126.002ZM126.192 228.328H131.17V223.35H126.192V228.328ZM136.556 230.228V221.45H143.643V223.179H145.391V230.228H143.453V223.35H138.475V230.228H136.556ZM149.047 230.228V228.518H147.318V223.179H149.047V221.45H154.405V223.179H156.153V225.06H154.215V223.35H149.237V228.328H154.215V226.599H156.153V228.518H154.405V230.228H149.047ZM158.451 230.228V221.45H160.37V230.228H158.451ZM158.451 219.93V218.011H160.37V219.93H158.451ZM162.291 230.228V221.45H169.378V223.179H171.126V230.228H169.188V223.35H164.21V230.228H162.291ZM174.782 233.667V231.957H173.053V230.057H174.972V231.767H179.969V228.518H174.782V226.789H173.053V223.179H174.782V221.45H180.159V223.179H181.888V231.957H180.159V233.667H174.782ZM174.972 226.599H179.969V223.35H174.972V226.599ZM189.719 230.228V228.518H187.99V219.74H189.719V218.011H195.077V219.74H196.825V223.35H195.077V224.87H196.825V228.518H195.077V230.228H189.719ZM189.909 228.328H194.887V225.06H191.429V223.179H194.887V219.93H189.909V228.328ZM200.48 230.228V228.518H198.751V223.179H200.48V221.45H205.838V223.179H207.586V228.328H209.315V230.228H207.396V228.518H205.838V230.228H200.48ZM200.67 228.328H205.648V223.35H200.67V228.328ZM212.392 230.228V228.518H210.663V218.011H212.582V221.45H217.75V223.179H219.498V228.518H217.75V230.228H212.392ZM212.582 228.328H217.56V223.35H212.582V228.328ZM223.154 233.667V231.957H221.425V230.057H223.344V231.767H228.341V228.518H223.154V226.789H221.425V221.45H223.344V226.599H228.341V221.45H230.26V231.957H228.531V233.667H223.154Z" fill="#8A2A47"/>
<path d="M13.869 230.228V228.518H12.14V226.599H14.059V228.328H19.037V225.06H13.869V223.35H12.14V219.74H13.869V218.011H19.227V219.74H20.975V221.64H19.037V219.93H14.059V223.179H19.227V224.87H20.975V228.518H19.227V230.228H13.869ZM25.0018 230.228V228.518H23.2728V221.45H25.1918V228.328H30.1698V221.45H32.1078V228.518H30.3598V230.228H25.0018ZM36.1346 230.228V228.518H34.4056V218.011H36.3246V221.45H41.4926V223.179H43.2406V228.518H41.4926V230.228H36.1346ZM36.3246 228.328H41.3026V223.35H36.3246V228.328ZM47.2674 230.247V228.518H45.5384V226.599H47.4574V228.328H50.7254V221.45H52.6444V228.518H50.9154V230.247H47.2674ZM56.6747 230.228V228.518H54.9457V223.179H56.6747V221.45H62.0327V223.179H63.7807V225.06H61.8427V223.35H56.8647V224.87H60.3227V226.789H56.8647V228.328H61.8427V226.58H63.7807V228.499H62.0327V230.228H56.6747ZM67.8075 230.228V228.518H66.0785V223.179H67.8075V221.45H73.1655V223.179H74.9135V225.06H72.9755V223.35H67.9975V228.328H72.9755V226.599H74.9135V228.518H73.1655V230.228H67.8075ZM79.704 230.228V228.518H77.994V223.35H76.265V221.45H77.994V218.011H79.894V221.45H85.1V223.35H79.894V228.328H84.91V226.599H86.829V228.518H85.1V230.228H79.704ZM89.1234 228.461V226.542H91.0424V228.461H89.1234ZM89.1234 225.079V223.179H91.0424V225.079H89.1234Z" fill="#8A2A47"/>
<defs>
<linearGradient id="paint0_linear_410_69" x1="7" y1="28.4263" x2="688" y2="28.4263" gradientUnits="userSpaceOnUse">
<stop stop-color="#D12459"/>
<stop offset="1" stop-color="#FFD0DE"/>
</linearGradient>
<linearGradient id="paint1_linear_410_69" x1="10" y1="73" x2="685" y2="73" gradientUnits="userSpaceOnUse">
<stop stop-color="#E1E1E1"/>
<stop offset="1" stop-color="white"/>
</linearGradient>
<linearGradient id="paint2_linear_410_69" x1="10" y1="103" x2="685" y2="103" gradientUnits="userSpaceOnUse">
<stop stop-color="#E1E1E1"/>
<stop offset="1" stop-color="white"/>
</linearGradient>
<clipPath id="clip0_410_69">
<rect width="36" height="36" fill="white" transform="translate(12 7)"/>
</clipPath>
</defs>
</svg>
