<svg width="333" height="210" viewBox="0 0 333 210" fill="none" xmlns="http://www.w3.org/2000/svg">
<path d="M186.86 48.7201C200.93 52.71 218.57 54.6 228.02 63.63C237.47 72.66 238.52 88.83 237.89 104.58C237.26 120.54 235.16 136.08 227.6 148.26C220.04 160.65 207.23 169.47 193.79 171.99C180.14 174.72 166.07 170.94 150.95 172.62C135.83 174.51 119.87 181.65 106.43 178.92C92.99 176.19 82.2801 163.8 75.7701 149.94C69.2601 136.08 66.9501 120.54 69.6801 106.47C72.4101 92.61 79.9701 80.22 88.7901 70.35C97.8201 60.69 107.9 53.55 118.61 47.46C129.53 41.58 140.66 36.7501 151.58 37.5901C162.5 38.2201 172.79 44.5201 186.86 48.7201Z" fill="url(#paint0_linear_82_26)"/>
<path d="M1.3125 119.844C1.3125 119.26 1.51042 118.771 1.90625 118.375C2.32292 117.958 2.82292 117.75 3.40625 117.75H9.40625V107.688H3.40625C2.82292 107.688 2.33333 107.479 1.9375 107.062C1.52083 106.667 1.3125 106.177 1.3125 105.594C1.3125 105.01 1.51042 104.521 1.90625 104.125C2.32292 103.708 2.82292 103.5 3.40625 103.5H19.5938C20.1771 103.5 20.6771 103.698 21.0938 104.094C21.4896 104.51 21.6875 105.01 21.6875 105.594C21.6875 106.177 21.4792 106.677 21.0625 107.094C20.6667 107.49 20.1771 107.688 19.5938 107.688H13.625V117.75H19.5938C20.1771 117.75 20.6771 117.948 21.0938 118.344C21.4896 118.76 21.6875 119.26 21.6875 119.844C21.6875 120.427 21.4792 120.927 21.0625 121.344C20.6667 121.74 20.1771 121.938 19.5938 121.938H3.40625C2.82292 121.938 2.33333 121.729 1.9375 121.312C1.52083 120.917 1.3125 120.427 1.3125 119.844ZM34.875 107.281C35.9583 107.281 37.0208 107.406 38.0625 107.656C39.125 107.906 40.1354 108.281 41.0938 108.781C42.0521 109.26 42.8958 109.906 43.625 110.719C44.375 111.531 44.7812 112.5 44.8438 113.625V114.938V120.281C44.7188 121.531 44.0312 122.208 42.7812 122.312C42.1979 122.312 41.6875 122.125 41.25 121.75C40.8333 121.354 40.625 120.865 40.625 120.281V118.906V114.594C40.5833 113.948 40.3333 113.417 39.875 113C39.4375 112.562 38.9375 112.219 38.375 111.969C37.8333 111.719 37.2604 111.531 36.6562 111.406C36.0729 111.281 35.4792 111.219 34.875 111.219C34.2708 111.219 33.6667 111.281 33.0625 111.406C32.4792 111.531 31.9062 111.719 31.3438 111.969C30.8021 112.219 30.3021 112.562 29.8438 113C29.4062 113.417 29.1667 113.948 29.125 114.594V118.906V120.281C29.0208 121.531 28.3438 122.208 27.0938 122.312C26.5104 122.312 26 122.125 25.5625 121.75C25.1458 121.354 24.9375 120.865 24.9375 120.281V114.938V113.625C25 112.5 25.3958 111.531 26.125 110.719C26.8542 109.906 27.6979 109.26 28.6562 108.781C29.6146 108.281 30.6146 107.906 31.6562 107.656C32.7188 107.406 33.7917 107.281 34.875 107.281ZM55.5938 103C56.1771 103 56.6771 103.198 57.0938 103.594C57.5104 103.969 57.7292 104.448 57.75 105.031V107.75H68.375C68.9583 107.75 69.4583 107.948 69.875 108.344C70.2708 108.76 70.4688 109.26 70.4688 109.844C70.4688 110.427 70.2604 110.927 69.8438 111.344C69.4479 111.74 68.9583 111.938 68.375 111.938H57.75V112.562C57.7292 113.417 57.7812 114.208 57.9062 114.938C58.0521 115.646 58.3854 116.281 58.9062 116.844C59.4271 117.406 60.0833 117.708 60.875 117.75H68.5C69.0833 117.771 69.5625 117.99 69.9375 118.406C70.3333 118.823 70.5312 119.323 70.5312 119.906C70.5104 120.469 70.3021 120.948 69.9062 121.344C69.5312 121.719 69.0625 121.917 68.5 121.938H59.8125C58.3542 121.854 57.1458 121.365 56.1875 120.469C55.25 119.552 54.5729 118.438 54.1562 117.125C53.7604 115.812 53.5521 114.417 53.5312 112.938V111.938H49.9375C49.3542 111.938 48.8646 111.729 48.4688 111.312C48.0521 110.917 47.8438 110.427 47.8438 109.844C47.8438 109.26 48.0417 108.771 48.4375 108.375C48.8542 107.958 49.3542 107.75 49.9375 107.75H53.5312V105.031C53.5521 104.469 53.7604 104 54.1562 103.625C54.5521 103.229 55.0312 103.021 55.5938 103ZM79.9375 121.938C78.1042 121.875 76.7188 121.448 75.7812 120.656C74.8438 119.844 74.1667 118.938 73.75 117.938C73.3333 116.917 73.125 115.885 73.125 114.844C73.125 113.76 73.3229 112.719 73.7188 111.719C74.1354 110.698 74.8125 109.792 75.75 109C76.7083 108.188 77.9167 107.771 79.375 107.75H91.25C91.8333 107.75 92.3229 107.948 92.7188 108.344C93.1354 108.719 93.3438 109.177 93.3438 109.719C93.3438 110.281 93.1354 110.76 92.7188 111.156C92.3229 111.531 91.8333 111.719 91.25 111.719H79.5625C79.1042 111.719 78.6979 111.875 78.3438 112.188C78.0104 112.5 77.7604 112.906 77.5938 113.406C77.4479 113.906 77.375 114.396 77.375 114.875C77.375 115.396 77.4479 115.906 77.5938 116.406C77.7604 116.906 78.0104 117.312 78.3438 117.625C78.6979 117.917 79.1042 118.073 79.5625 118.094H91.25C91.8333 118.094 92.3229 118.281 92.7188 118.656C93.1354 119.031 93.3438 119.479 93.3438 120C93.3438 120.542 93.1354 121 92.7188 121.375C92.3229 121.75 91.8333 121.938 91.25 121.938H79.9375ZM92.9688 114.781C92.9688 115.177 92.7917 115.521 92.4375 115.812C92.125 116.083 91.7292 116.219 91.25 116.219H81.0312C80.5521 116.219 80.1458 116.083 79.8125 115.812C79.4792 115.521 79.3125 115.177 79.3125 114.781C79.3125 114.406 79.4792 114.073 79.8125 113.781C80.1458 113.51 80.5521 113.375 81.0312 113.375H91.25C91.7292 113.375 92.1354 113.521 92.4688 113.812C92.8021 114.083 92.9688 114.406 92.9688 114.781ZM97.5938 111.688C97.9896 110.688 98.6562 109.792 99.5938 109C100.552 108.188 101.76 107.771 103.219 107.75H114.969C115.552 107.75 116.042 107.958 116.438 108.375C116.854 108.771 117.062 109.26 117.062 109.844C117.062 110.427 116.854 110.927 116.438 111.344C116.042 111.74 115.552 111.938 114.969 111.938H103.094C102.698 111.938 102.354 112.104 102.062 112.438C101.771 112.75 101.542 113.125 101.375 113.562C101.229 114 101.156 114.417 101.156 114.812V120.281C101.031 121.531 100.344 122.208 99.0938 122.312C98.5104 122.312 98 122.125 97.5625 121.75C97.1458 121.354 96.9375 120.865 96.9375 120.281V114.844H96.9688C96.9688 113.76 97.1771 112.708 97.5938 111.688ZM126.938 103C127.521 103 128.021 103.198 128.438 103.594C128.854 103.969 129.073 104.448 129.094 105.031V107.75H139.719C140.302 107.75 140.802 107.948 141.219 108.344C141.615 108.76 141.812 109.26 141.812 109.844C141.812 110.427 141.604 110.927 141.188 111.344C140.792 111.74 140.302 111.938 139.719 111.938H129.094V112.562C129.073 113.417 129.125 114.208 129.25 114.938C129.396 115.646 129.729 116.281 130.25 116.844C130.771 117.406 131.427 117.708 132.219 117.75H139.844C140.427 117.771 140.906 117.99 141.281 118.406C141.677 118.823 141.875 119.323 141.875 119.906C141.854 120.469 141.646 120.948 141.25 121.344C140.875 121.719 140.406 121.917 139.844 121.938H131.156C129.698 121.854 128.49 121.365 127.531 120.469C126.594 119.552 125.917 118.438 125.5 117.125C125.104 115.812 124.896 114.417 124.875 112.938V111.938H121.281C120.698 111.938 120.208 111.729 119.812 111.312C119.396 110.917 119.188 110.427 119.188 109.844C119.188 109.26 119.385 108.771 119.781 108.375C120.198 107.958 120.698 107.75 121.281 107.75H124.875V105.031C124.896 104.469 125.104 104 125.5 103.625C125.896 103.229 126.375 103.021 126.938 103ZM151.281 121.938C149.448 121.875 148.062 121.448 147.125 120.656C146.188 119.844 145.51 118.938 145.094 117.938C144.677 116.917 144.469 115.885 144.469 114.844C144.469 113.76 144.667 112.719 145.062 111.719C145.479 110.698 146.156 109.792 147.094 109C148.052 108.188 149.26 107.771 150.719 107.75H162.594C163.177 107.75 163.667 107.948 164.062 108.344C164.479 108.719 164.688 109.177 164.688 109.719C164.688 110.281 164.479 110.76 164.062 111.156C163.667 111.531 163.177 111.719 162.594 111.719H150.906C150.448 111.719 150.042 111.875 149.688 112.188C149.354 112.5 149.104 112.906 148.938 113.406C148.792 113.906 148.719 114.396 148.719 114.875C148.719 115.396 148.792 115.906 148.938 116.406C149.104 116.906 149.354 117.312 149.688 117.625C150.042 117.917 150.448 118.073 150.906 118.094H162.594C163.177 118.094 163.667 118.281 164.062 118.656C164.479 119.031 164.688 119.479 164.688 120C164.688 120.542 164.479 121 164.062 121.375C163.667 121.75 163.177 121.938 162.594 121.938H151.281ZM164.312 114.781C164.312 115.177 164.135 115.521 163.781 115.812C163.469 116.083 163.073 116.219 162.594 116.219H152.375C151.896 116.219 151.49 116.083 151.156 115.812C150.823 115.521 150.656 115.177 150.656 114.781C150.656 114.406 150.823 114.073 151.156 113.781C151.49 113.51 151.896 113.375 152.375 113.375H162.594C163.073 113.375 163.479 113.521 163.812 113.812C164.146 114.083 164.312 114.406 164.312 114.781ZM177.5 120C175.896 121.208 174.344 121.854 172.844 121.938H169.594C169.031 121.917 168.552 121.719 168.156 121.344C167.781 120.948 167.583 120.469 167.562 119.906C167.562 119.323 167.75 118.823 168.125 118.406C168.521 117.99 169.01 117.771 169.594 117.75H172.531C173.323 117.708 174.146 117.406 175 116.844C175.854 116.281 176.562 115.635 177.125 114.906C177.188 114.844 177.25 114.771 177.312 114.688C176.75 114 176.062 113.385 175.25 112.844C174.396 112.281 173.573 111.979 172.781 111.938H169.844C169.26 111.917 168.771 111.698 168.375 111.281C168 110.865 167.812 110.365 167.812 109.781C167.833 109.219 168.031 108.75 168.406 108.375C168.802 107.979 169.281 107.771 169.844 107.75H173.094C174.594 107.833 176.146 108.479 177.75 109.688C178.438 110.208 179.083 110.802 179.688 111.469C180.292 110.802 180.948 110.208 181.656 109.688C183.24 108.479 184.781 107.833 186.281 107.75H189.531C190.094 107.771 190.562 107.979 190.938 108.375C191.333 108.75 191.542 109.219 191.562 109.781C191.562 110.365 191.365 110.865 190.969 111.281C190.594 111.698 190.115 111.917 189.531 111.938H186.594C185.802 111.979 184.979 112.281 184.125 112.844C183.312 113.385 182.625 114 182.062 114.688C182.125 114.771 182.188 114.844 182.25 114.906C182.812 115.635 183.521 116.281 184.375 116.844C185.229 117.406 186.052 117.708 186.844 117.75H189.781C190.365 117.771 190.844 117.99 191.219 118.406C191.615 118.823 191.812 119.323 191.812 119.906C191.792 120.469 191.583 120.948 191.188 121.344C190.812 121.719 190.344 121.917 189.781 121.938H186.531C185.031 121.854 183.49 121.208 181.906 120C181.094 119.375 180.354 118.698 179.688 117.969C179.021 118.698 178.292 119.375 177.5 120ZM201.781 103C202.365 103 202.865 103.198 203.281 103.594C203.698 103.969 203.917 104.448 203.938 105.031V107.75H214.562C215.146 107.75 215.646 107.948 216.062 108.344C216.458 108.76 216.656 109.26 216.656 109.844C216.656 110.427 216.448 110.927 216.031 111.344C215.635 111.74 215.146 111.938 214.562 111.938H203.938V112.562C203.917 113.417 203.969 114.208 204.094 114.938C204.24 115.646 204.573 116.281 205.094 116.844C205.615 117.406 206.271 117.708 207.062 117.75H214.688C215.271 117.771 215.75 117.99 216.125 118.406C216.521 118.823 216.719 119.323 216.719 119.906C216.698 120.469 216.49 120.948 216.094 121.344C215.719 121.719 215.25 121.917 214.688 121.938H206C204.542 121.854 203.333 121.365 202.375 120.469C201.438 119.552 200.76 118.438 200.344 117.125C199.948 115.812 199.74 114.417 199.719 112.938V111.938H196.125C195.542 111.938 195.052 111.729 194.656 111.312C194.24 110.917 194.031 110.427 194.031 109.844C194.031 109.26 194.229 108.771 194.625 108.375C195.042 107.958 195.542 107.75 196.125 107.75H199.719V105.031C199.74 104.469 199.948 104 200.344 103.625C200.74 103.229 201.219 103.021 201.781 103ZM229.688 122.469C228.604 122.469 227.531 122.344 226.469 122.094C225.427 121.844 224.427 121.479 223.469 121C222.51 120.5 221.667 119.844 220.938 119.031C220.208 118.219 219.812 117.25 219.75 116.125V114.812V109.469C219.75 108.885 219.958 108.406 220.375 108.031C220.812 107.635 221.323 107.438 221.906 107.438C223.156 107.542 223.833 108.219 223.938 109.469V110.844V115.156C223.979 115.802 224.219 116.344 224.656 116.781C225.115 117.198 225.615 117.531 226.156 117.781C226.719 118.031 227.292 118.219 227.875 118.344C228.479 118.469 229.083 118.531 229.688 118.531C230.292 118.531 230.885 118.469 231.469 118.344C232.073 118.219 232.646 118.031 233.188 117.781C233.75 117.531 234.25 117.198 234.688 116.781C235.146 116.344 235.396 115.802 235.438 115.156V110.844V109.469C235.438 108.885 235.646 108.406 236.062 108.031C236.5 107.635 237.01 107.438 237.594 107.438C238.844 107.542 239.531 108.219 239.656 109.469V114.812V116.125C239.594 117.25 239.188 118.219 238.438 119.031C237.708 119.844 236.865 120.5 235.906 121C234.948 121.479 233.938 121.844 232.875 122.094C231.833 122.344 230.771 122.469 229.688 122.469ZM261.125 120.281V112.75C261.125 112.229 260.854 111.958 260.312 111.938H249.375C248.979 111.958 248.635 112.135 248.344 112.469C248.052 112.781 247.833 113.156 247.688 113.594C247.562 114.01 247.5 114.438 247.5 114.875C247.5 115.292 247.562 115.719 247.688 116.156C247.833 116.573 248.052 116.948 248.344 117.281C248.635 117.594 248.979 117.75 249.375 117.75H257.375C257.958 117.75 258.448 117.958 258.844 118.375C259.26 118.771 259.469 119.26 259.469 119.844C259.469 120.427 259.26 120.917 258.844 121.312C258.448 121.729 257.958 121.938 257.375 121.938H249.5C248.042 121.917 246.833 121.51 245.875 120.719C244.938 119.906 244.26 119 243.844 118C243.448 116.979 243.25 115.927 243.25 114.844C243.25 113.802 243.458 112.781 243.875 111.781C244.292 110.76 244.969 109.854 245.906 109.062C246.844 108.25 248.229 107.812 250.062 107.75H263.188C263.771 107.75 264.271 107.948 264.688 108.344C265.104 108.719 265.323 109.198 265.344 109.781V120.281C265.344 120.865 265.125 121.354 264.688 121.75C264.271 122.125 263.771 122.312 263.188 122.312C261.938 122.208 261.25 121.531 261.125 120.281ZM271.531 103C272.094 103.021 272.573 103.229 272.969 103.625C273.365 104 273.573 104.469 273.594 105.031V120.344C273.469 121.594 272.781 122.271 271.531 122.375C270.948 122.375 270.438 122.188 270 121.812C269.583 121.417 269.375 120.927 269.375 120.344V105.031C269.396 104.448 269.615 103.969 270.031 103.594C270.448 103.198 270.948 103 271.531 103ZM279.719 107.438C280.281 107.458 280.76 107.667 281.156 108.062C281.552 108.438 281.76 108.906 281.781 109.469V120.281C281.656 121.531 280.969 122.208 279.719 122.312C279.135 122.312 278.625 122.125 278.188 121.75C277.771 121.354 277.562 120.865 277.562 120.281V109.469C277.583 108.885 277.802 108.406 278.219 108.031C278.635 107.635 279.135 107.438 279.719 107.438ZM277.094 103.375C277.094 102.792 277.344 102.292 277.844 101.875C278.344 101.458 278.948 101.25 279.656 101.25C280.365 101.25 280.969 101.458 281.469 101.875C281.969 102.292 282.219 102.792 282.219 103.375C282.219 103.979 281.969 104.49 281.469 104.906C280.969 105.323 280.365 105.531 279.656 105.531C278.948 105.531 278.344 105.323 277.844 104.906C277.344 104.49 277.094 103.979 277.094 103.375ZM292.375 103C292.958 103 293.458 103.198 293.875 103.594C294.292 103.969 294.51 104.448 294.531 105.031V107.75H305.156C305.74 107.75 306.24 107.948 306.656 108.344C307.052 108.76 307.25 109.26 307.25 109.844C307.25 110.427 307.042 110.927 306.625 111.344C306.229 111.74 305.74 111.938 305.156 111.938H294.531V112.562C294.51 113.417 294.562 114.208 294.688 114.938C294.833 115.646 295.167 116.281 295.688 116.844C296.208 117.406 296.865 117.708 297.656 117.75H305.281C305.865 117.771 306.344 117.99 306.719 118.406C307.115 118.823 307.312 119.323 307.312 119.906C307.292 120.469 307.083 120.948 306.688 121.344C306.312 121.719 305.844 121.917 305.281 121.938H296.594C295.135 121.854 293.927 121.365 292.969 120.469C292.031 119.552 291.354 118.438 290.938 117.125C290.542 115.812 290.333 114.417 290.312 112.938V111.938H286.719C286.135 111.938 285.646 111.729 285.25 111.312C284.833 110.917 284.625 110.427 284.625 109.844C284.625 109.26 284.823 108.771 285.219 108.375C285.635 107.958 286.135 107.75 286.719 107.75H290.312V105.031C290.333 104.469 290.542 104 290.938 103.625C291.333 103.229 291.812 103.021 292.375 103ZM312.406 107.375C312.99 107.375 313.49 107.573 313.906 107.969C314.323 108.344 314.542 108.823 314.562 109.406V112.562C314.542 113.417 314.594 114.208 314.719 114.938C314.865 115.646 315.198 116.281 315.719 116.844C316.24 117.406 316.896 117.708 317.688 117.75H326.031V109.469C326.031 108.885 326.24 108.406 326.656 108.031C327.094 107.635 327.604 107.438 328.188 107.438C329.438 107.542 330.125 108.219 330.25 109.469V119.656C330.25 121.323 330.021 122.896 329.562 124.375C329.146 125.688 328.458 126.792 327.5 127.688C326.562 128.604 325.365 129.104 323.906 129.188H313.094C312.531 129.167 312.052 128.958 311.656 128.562C311.281 128.188 311.083 127.719 311.062 127.156C311.062 126.573 311.25 126.073 311.625 125.656C312.021 125.24 312.51 125.021 313.094 125H322.844C323.635 124.958 324.292 124.656 324.812 124.094C325.333 123.531 325.667 122.875 325.812 122.125C325.833 122.062 325.844 122 325.844 121.938H316.625C315.167 121.854 313.958 121.365 313 120.469C312.062 119.552 311.385 118.438 310.969 117.125C310.573 115.812 310.365 114.417 310.344 112.938V109.406C310.365 108.844 310.573 108.375 310.969 108C311.365 107.604 311.844 107.396 312.406 107.375Z" fill="#592F14"/>
<defs>
<linearGradient id="paint0_linear_82_26" x1="68.5537" y1="179.535" x2="208.406" y2="12.6611" gradientUnits="userSpaceOnUse">
<stop stop-color="#F87537"/>
<stop offset="1" stop-color="#FBA81F"/>
</linearGradient>
</defs>
</svg>
