<svg width="218" height="231" viewBox="0 0 218 231" fill="none" xmlns="http://www.w3.org/2000/svg">
<path d="M122.386 64.3463L68.319 95.433L74.7954 106.697L117.598 82.0867L122.386 64.3463Z" fill="#4C8E43"/>
<path d="M122.386 64.3463L117.598 82.0867L142.327 124.922L153.591 118.445L122.386 64.3463Z" fill="#6AAC5F"/>
<path d="M88.5219 189.829L83.7344 207.57L189.916 146.519L194.854 128.692L88.5219 189.829Z" fill="#4C8E43"/>
<path d="M88.522 189.829L27.3528 83.6161L22.5652 101.356L83.7344 207.57L88.522 189.829Z" fill="#6AAC5F"/>
<path d="M133.653 22.5972L27.3529 83.6162L88.4038 189.798L194.585 128.747L133.653 22.5972ZM99.7888 148.081L69.2202 94.9148L122.386 64.3462L152.955 117.512L99.7888 148.081Z" fill="#89CC7C"/>
<path d="M16.6164 111.921C16.9975 113.118 16.635 114.012 15.5288 114.604C14.9933 114.835 14.4504 114.865 13.9001 114.695C13.3606 114.497 12.9751 114.13 12.7437 113.594L6.8684 99.9968C6.65615 99.4531 6.6669 98.9265 6.90064 98.417C7.12612 97.8883 7.5066 97.5083 8.04209 97.2769L9.44773 96.6696L12.9762 95.145L20.0618 92.0833C20.1765 92.0337 20.2954 91.9937 20.4184 91.9633L20.5905 91.8889C21.9458 91.3487 23.1776 91.1795 24.2861 91.3814C25.3946 91.5833 26.3013 91.9745 27.006 92.5551C27.7025 93.1166 28.2119 93.7702 28.5342 94.5161C28.8647 95.281 28.9999 96.1191 28.9397 97.0302C28.8903 97.9139 28.5498 98.8327 27.9179 99.7866C27.3052 100.732 26.3378 101.513 25.0156 102.13L19.9668 104.312C20.533 105.202 21.1543 105.773 21.8307 106.025C22.488 106.286 23.1705 106.263 23.8781 105.958L30.0744 103.28C30.6181 103.068 31.1447 103.079 31.6542 103.313C32.1829 103.538 32.5629 103.919 32.7943 104.454C32.9983 104.979 32.9971 105.501 32.7907 106.022C32.5952 106.514 32.2434 106.882 31.7353 107.124L25.0227 110.025C23.6157 110.655 22.0947 110.654 20.4597 110.022C18.8247 109.389 17.5482 108.352 16.6303 106.911C15.5423 105.338 14.9529 104.447 14.862 104.236C14.6306 103.701 14.6181 103.173 14.8245 102.653C15.0417 102.105 15.418 101.715 15.9535 101.484L23.5268 98.2116C23.8819 98.0355 24.1453 97.8309 24.3169 97.5979C24.4994 97.3375 24.6109 97.0964 24.6512 96.8747C24.6833 96.6339 24.6581 96.4179 24.5754 96.2266C24.4928 96.0354 24.3569 95.8785 24.1678 95.7559C23.9704 95.6143 23.7185 95.5302 23.4121 95.5038C23.1165 95.4499 22.7828 95.492 22.4112 95.6298L14.6371 98.989L12.3422 99.9806C11.8532 100.215 11.7121 100.571 11.9186 101.049L16.6164 111.921ZM42.6075 102.427C40.8998 103.096 39.4586 103.254 38.284 102.899C37.1011 102.525 36.1201 101.962 35.341 101.209C34.5536 100.437 33.9533 99.5731 33.5401 98.6169C33.1104 97.6224 32.879 96.5877 32.8457 95.5127C32.8232 94.4103 33.0853 93.3098 33.6319 92.2113C34.1894 91.0853 35.1333 90.2235 36.4637 89.6259L47.3646 84.9158C47.9001 84.6844 48.4281 84.6719 48.9484 84.8782C49.4797 85.0572 49.8527 85.3953 50.0676 85.8925C50.2907 86.4089 50.2895 86.9314 50.064 87.46C49.8494 87.9613 49.4743 88.3276 48.9388 88.559L38.2101 93.1948C37.7893 93.3766 37.4784 93.6811 37.2772 94.1085C37.0952 94.5276 37.0268 94.9997 37.0721 95.5248C37.1366 96.0416 37.2639 96.5199 37.4539 96.9598C37.6605 97.4379 37.9299 97.8775 38.2621 98.2787C38.6134 98.6715 39.004 98.9453 39.434 99.1C39.8748 99.2272 40.3097 99.2095 40.7387 99.0468L51.4675 94.411C52.003 94.1796 52.5268 94.1576 53.0389 94.3448C53.5701 94.5238 53.939 94.8523 54.1456 95.3304C54.3604 95.8277 54.351 96.331 54.1172 96.8405C53.9026 97.3418 53.5276 97.7081 52.9921 97.9395L42.6075 102.427ZM51.7313 90.6885C51.8883 91.0519 51.8621 91.4377 51.6527 91.8459C51.4733 92.2184 51.1636 92.4998 50.7238 92.6898L41.3432 96.7431C40.9034 96.9331 40.4767 96.97 40.0633 96.8536C39.6416 96.718 39.3523 96.4686 39.1953 96.1052C39.0466 95.761 39.0673 95.3889 39.2576 94.9889C39.4562 94.6081 39.7754 94.3226 40.2153 94.1326L49.5958 90.0793C50.0357 89.8893 50.4664 89.862 50.8881 89.9975C51.3015 90.1139 51.5826 90.3443 51.7313 90.6885ZM52.6809 77.4442C53.2055 77.2402 53.728 77.2414 54.2484 77.4477C54.7605 77.635 55.1377 77.9826 55.3799 78.4907L61.4536 92.5472C61.8346 93.7442 61.4721 94.6384 60.366 95.2299C59.8305 95.4613 59.2876 95.4916 58.7372 95.3209C58.1977 95.1228 57.8123 94.756 57.5809 94.2205L51.5072 80.1641C51.295 79.6203 51.3057 79.0937 51.5395 78.5842C51.7649 78.0556 52.1454 77.6756 52.6809 77.4442ZM81.1078 83.9867L78.1205 77.0732C77.914 76.5951 77.5579 76.4539 77.0524 76.6496L67.0121 80.9879C66.657 81.1641 66.4117 81.463 66.2762 81.8847C66.1324 82.2872 66.0803 82.7182 66.12 83.1777C66.1705 83.6097 66.2825 84.0266 66.4561 84.4282C66.6213 84.8107 66.8481 85.1779 67.1364 85.53C67.4355 85.8546 67.7851 86.1121 68.185 86.3024C68.5767 86.4736 68.9543 86.4807 69.3176 86.3237L76.6614 83.1505C77.1969 82.9191 77.7289 82.9161 78.2576 83.1416C78.7971 83.3397 79.1825 83.7065 79.4139 84.242C79.6452 84.7775 79.6482 85.3095 79.4227 85.8382C79.2246 86.3777 78.8578 86.7631 78.3223 86.9945L71.0933 90.1181C69.7464 90.6774 68.476 90.7838 67.2823 90.4371C66.0994 90.0632 65.1184 89.4998 64.3393 88.7471C63.571 87.967 62.972 87.0797 62.5423 86.0853C62.1291 85.129 61.9154 84.1093 61.9013 83.0261C61.8789 81.9237 62.1409 80.8232 62.6875 79.7247C63.2259 78.6069 64.3241 77.6558 65.9822 76.8712L78.0306 71.6652C78.5661 71.4339 79.1036 71.4172 79.6431 71.6153C80.1743 71.7943 80.5652 72.1474 80.8157 72.6746L84.9805 82.3133C85.2119 82.8488 85.2052 83.385 84.9606 83.9219C84.7269 84.4314 84.3423 84.8018 83.8068 85.0332C82.618 85.4334 81.7183 85.0845 81.1078 83.9867ZM88.0515 62.1609C88.587 61.9295 89.1244 61.9128 89.6639 62.1109C90.1952 62.2899 90.586 62.643 90.8365 63.1702L91.9149 65.666L101.668 61.4516C102.204 61.2202 102.741 61.2035 103.281 61.4016C103.809 61.6271 104.189 62.0076 104.421 62.5431C104.652 63.0786 104.659 63.6202 104.442 64.168C104.236 64.6883 103.865 65.0642 103.329 65.2956L93.5759 69.51L93.8238 70.0837C94.1435 70.876 94.5053 71.5821 94.9093 72.2019C95.3241 72.7943 95.8821 73.2454 96.5833 73.5551C97.2846 73.8649 98.0068 73.8819 98.7501 73.6061L105.75 70.5817C106.293 70.3694 106.82 70.3802 107.329 70.6139C107.858 70.8394 108.238 71.2199 108.469 71.7554C108.673 72.28 108.672 72.8025 108.466 73.3229C108.27 73.8159 107.919 74.1835 107.411 74.4257L99.4357 77.8716C98.0639 78.3735 96.7605 78.4034 95.5255 77.9612C94.3013 77.4915 93.2376 76.7369 92.3345 75.6974C91.4506 74.6496 90.7057 73.4509 90.0998 72.1013L89.7032 71.1833L86.4042 72.6088C85.8688 72.8401 85.3367 72.8431 84.8081 72.6176C84.2686 72.4195 83.8831 72.0527 83.6518 71.5172C83.4204 70.9818 83.4079 70.4538 83.6142 69.9335C83.8314 69.3857 84.2078 68.9961 84.7433 68.7648L88.0422 67.3393L86.9639 64.8436C86.7599 64.319 86.7652 63.806 86.9798 63.3048C87.1862 62.7844 87.5434 62.4031 88.0515 62.1609ZM127.408 63.9807L124.421 57.0673C124.214 56.5892 123.858 56.448 123.353 56.6437L113.312 60.982C112.957 61.1582 112.712 61.4571 112.576 61.8787C112.433 62.2813 112.38 62.7123 112.42 63.1718C112.471 63.6038 112.583 64.0207 112.756 64.4223C112.921 64.8048 113.148 65.172 113.437 65.5241C113.736 65.8487 114.085 66.1062 114.485 66.2965C114.877 66.4677 115.254 66.4747 115.618 66.3177L122.962 63.1446C123.497 62.9132 124.029 62.9102 124.558 63.1357C125.097 63.3338 125.483 63.7006 125.714 64.2361C125.945 64.7716 125.948 65.3036 125.723 65.8322C125.525 66.3717 125.158 66.7572 124.623 66.9886L117.393 70.1122C116.047 70.6715 114.776 70.7778 113.582 70.4312C112.4 70.0572 111.419 69.4939 110.639 68.7412C109.871 67.9611 109.272 67.0738 108.842 66.0793C108.429 65.1231 108.216 64.1034 108.201 63.0202C108.179 61.9178 108.441 60.8173 108.988 59.7187C109.526 58.601 110.624 57.6499 112.282 56.8653L124.331 51.6593C124.866 51.428 125.404 51.4113 125.943 51.6094C126.474 51.7884 126.865 52.1415 127.116 52.6687L131.281 62.3074C131.512 62.8429 131.505 63.3791 131.261 63.916C131.027 64.4255 130.642 64.7959 130.107 65.0273C128.918 65.4275 128.019 65.0786 127.408 63.9807ZM132.805 45.036L137.528 55.9656C137.734 56.4437 138.09 56.5849 138.596 56.3891L148.636 52.0508C148.991 51.8747 149.241 51.5853 149.384 51.1828C149.52 50.7611 149.562 50.3342 149.512 49.9022C149.472 49.4427 149.366 49.0122 149.192 48.6106C149.027 48.2281 148.795 47.8745 148.495 47.5499C148.207 47.1978 147.867 46.9362 147.476 46.7651C147.076 46.5748 146.694 46.5581 146.331 46.7151L138.987 49.8883C138.451 50.1197 137.914 50.1363 137.374 49.9382C136.846 49.7127 136.466 49.3323 136.234 48.7968C136.003 48.2613 136 47.7292 136.225 47.2006C136.424 46.6611 136.79 46.2757 137.326 46.0443L144.555 42.9207C145.902 42.3614 147.167 42.2687 148.35 42.6427C149.543 42.9893 150.524 43.5527 151.293 44.3327C152.072 45.0854 152.676 45.959 153.106 46.9535C153.519 47.9097 153.737 48.939 153.759 50.0414C153.773 51.1246 153.511 52.2251 152.973 53.3428C152.426 54.4414 151.324 55.383 149.666 56.1675L137.618 61.3735C137.082 61.6049 136.549 61.6311 136.017 61.4521C135.478 61.254 135.083 60.8914 134.832 60.3642L128.932 46.7093C128.701 46.1739 128.702 45.6514 128.936 45.1419C129.18 44.605 129.571 44.2208 130.106 43.9894C131.295 43.5893 132.194 43.9381 132.805 45.036ZM153.486 33.8873C154.01 33.6833 154.533 33.6845 155.053 33.8909C155.565 34.0781 155.942 34.4258 156.185 34.9339L162.258 48.9903C162.639 50.1873 162.277 51.0816 161.171 51.673C160.635 51.9044 160.092 51.9347 159.542 51.764C159.002 51.5659 158.617 51.1991 158.386 50.6636L152.312 36.6072C152.1 36.0635 152.11 35.5368 152.344 35.0273C152.57 34.4987 152.95 34.1187 153.486 33.8873ZM172.414 46.3381C170.707 47.0079 169.265 47.1654 168.091 46.8105C166.908 46.4365 165.927 45.8732 165.148 45.1205C164.36 44.3486 163.76 43.4846 163.347 42.5284C162.917 41.5339 162.686 40.4992 162.652 39.4242C162.63 38.3219 162.892 37.2214 163.439 36.1228C163.996 34.9968 164.94 34.1351 166.271 33.5375L177.171 28.8273C177.707 28.5959 178.235 28.5834 178.755 28.7898C179.286 28.9687 179.66 29.3068 179.874 29.8041C180.097 30.3204 180.096 30.8429 179.871 31.3716C179.656 31.8728 179.281 32.2391 178.746 32.4705L168.017 37.1063C167.596 37.2881 167.285 37.5927 167.084 38.02C166.902 38.4391 166.834 38.9112 166.879 39.4363C166.943 39.9531 167.071 40.4315 167.261 40.8713C167.467 41.3494 167.737 41.7891 168.069 42.1902C168.42 42.5831 168.811 42.8568 169.241 43.0115C169.682 43.1388 170.117 43.1211 170.546 42.9584L181.274 38.3226C181.81 38.0912 182.334 38.0691 182.846 38.2563C183.377 38.4353 183.746 38.7639 183.952 39.242C184.167 39.7392 184.158 40.2426 183.924 40.7521C183.709 41.2533 183.334 41.6196 182.799 41.851L172.414 46.3381ZM181.538 34.6C181.695 34.9634 181.669 35.3492 181.46 35.7574C181.28 36.13 180.97 36.4113 180.531 36.6014L171.15 40.6546C170.71 40.8447 170.284 40.8815 169.87 40.7651C169.448 40.6296 169.159 40.3801 169.002 40.0168C168.853 39.6725 168.874 39.3004 169.064 38.9005C169.263 38.5196 169.582 38.2342 170.022 38.0441L179.403 33.9909C179.842 33.8008 180.273 33.7736 180.695 33.9091C181.108 34.0255 181.389 34.2558 181.538 34.6Z" fill="#EEFFF1"/>
</svg>
