<svg width="245" height="267" viewBox="0 0 245 267" fill="none" xmlns="http://www.w3.org/2000/svg">
<g clip-path="url(#clip0_61_2)">
<path d="M112.965 46.3526C153.844 61.7801 174.223 107.555 158.332 148.257L10.0678 92.1621C25.9587 51.4603 72.085 30.925 112.965 46.3526Z" fill="black"/>
<path d="M112.965 46.3526C153.844 61.7801 174.223 107.555 158.332 148.257L10.0678 92.1621C25.9587 51.4603 72.085 30.925 112.965 46.3526Z" fill="#E24646"/>
<path d="M123.487 220.577C82.6076 205.149 62.2286 159.374 78.1195 118.672L226.384 174.767C210.766 215.348 164.64 235.883 123.487 220.577Z" stroke="#9D9D9D" stroke-width="4.30653" stroke-miterlimit="10"/>
<path d="M45.2778 70.2351C45.057 70.7751 44.6789 71.1494 44.1434 71.3581C43.6193 71.594 43.0873 71.6016 42.5474 71.3808L30.977 66.6503C30.6028 66.5198 30.2587 66.4805 29.945 66.5322C29.6584 66.5726 29.4178 66.6656 29.2233 66.8111C29.0366 66.9373 28.9039 67.0969 28.825 67.2897C28.7462 67.4826 28.7252 67.6991 28.762 67.9392C28.8068 68.1601 28.9133 68.3949 29.0817 68.6438C29.2772 68.8813 29.5542 69.0846 29.9127 69.2537L38.1276 72.6123C39.4617 73.2028 40.4405 73.9743 41.0638 74.9269C41.7144 75.868 42.0651 76.7992 42.1162 77.7204C42.1944 78.6301 42.0718 79.4803 41.7486 80.271C41.4332 81.0423 40.925 81.7348 40.224 82.3485C39.5308 82.9429 38.6282 83.3616 37.516 83.6046C36.4117 83.8283 35.1846 83.6643 33.8347 83.1124L33.6612 83.0414C33.5376 83.0134 33.4179 82.9757 33.3022 82.9284L22.3683 78.4581C21.8283 78.2374 21.4404 77.865 21.2045 77.3409C20.9958 76.8054 21.0018 76.2677 21.2226 75.7277C21.4433 75.1878 21.8215 74.8135 22.3569 74.6048C22.881 74.3689 23.413 74.3613 23.953 74.5821L35.5812 79.3362C35.9397 79.5053 36.2662 79.56 36.5606 79.5003C36.8744 79.4485 37.1286 79.3499 37.3231 79.2044C37.5255 79.0395 37.6701 78.8511 37.7568 78.6389C37.812 78.504 37.8291 78.2971 37.808 78.0184C37.7948 77.7204 37.6944 77.443 37.5067 77.1863C37.3384 76.9374 37.075 76.7284 36.7165 76.5593L28.5015 73.2007C27.1674 72.6102 26.1751 71.8444 25.5246 70.9032C24.8933 69.9699 24.5347 69.058 24.4486 68.1676C24.3897 67.2657 24.5179 66.4291 24.8332 65.6577C25.1407 64.9056 25.6371 64.2421 26.3224 63.667C27.0155 63.0726 27.9143 62.6635 29.0186 62.4398C30.1229 62.216 31.3578 62.3608 32.7235 62.8742L32.897 62.9451C33.0206 62.9731 33.1403 63.0108 33.256 63.0581L44.1321 67.5047C44.672 67.7255 45.0464 68.1036 45.2551 68.6391C45.491 69.1632 45.4985 69.6952 45.2778 70.2351ZM50.2731 74.2018C50.8131 74.4226 51.201 74.795 51.4369 75.3191C51.6806 75.8239 51.7018 76.3502 51.5003 76.898L50.3059 79.8195C49.9633 80.6023 49.7119 81.3548 49.5517 82.077C49.4186 82.7879 49.4867 83.5022 49.7559 84.2199C50.0252 84.9377 50.5183 85.4657 51.2353 85.8038L58.9585 88.9614L62.0924 81.2961C62.3132 80.7561 62.6874 80.3914 63.215 80.202C63.7697 80.0012 64.3171 80.0112 64.857 80.2319C65.9746 80.8014 66.3548 81.6883 65.9974 82.8926L62.1421 92.3224C61.5114 93.8651 60.704 95.2344 59.72 96.4301C58.8376 97.4873 57.7834 98.2491 56.5573 98.7157C55.3426 99.2094 54.0446 99.2189 52.6632 98.7441L42.6548 94.6522C42.142 94.4201 41.7774 94.0459 41.5608 93.5297C41.3556 93.0407 41.3498 92.5319 41.5433 92.0034C41.7641 91.4634 42.1269 91.0716 42.6317 90.8278C43.1557 90.5919 43.6917 90.5747 44.2395 90.7762L53.2644 94.466C54.013 94.727 54.7347 94.6957 55.4297 94.3722C56.1246 94.0486 56.6815 93.5673 57.1004 92.9283C57.1433 92.8783 57.1766 92.8244 57.2002 92.7665L48.6671 89.2778C47.3488 88.6488 46.4156 87.7383 45.8676 86.5465C45.3467 85.3432 45.1418 84.0553 45.2528 82.6827C45.3831 81.318 45.7185 79.9471 46.259 78.5701L47.5953 75.3015C47.8275 74.7887 48.1977 74.4337 48.706 74.2363C49.2222 74.0198 49.7446 74.0082 50.2731 74.2018ZM76.7468 84.9242C77.4218 85.2001 78.0301 85.5839 78.5719 86.0755C79.1329 86.5749 79.6217 87.1686 80.0381 87.8566C80.0951 87.9924 80.1618 88.1322 80.2381 88.2759C80.3739 88.2189 80.5194 88.1659 80.6745 88.1168C81.4536 87.9176 82.2087 87.8325 82.9397 87.8612C83.6899 87.8979 84.3929 88.0502 85.0485 88.3183C85.7235 88.5942 86.3318 88.978 86.8736 89.4696C87.4346 89.9691 87.9098 90.5685 88.2991 91.2678C88.7156 91.9557 88.9918 92.7664 89.1279 93.6998C89.2832 94.6411 89.148 95.6324 88.7222 96.6737L86.2033 102.835C85.6145 103.945 84.7219 104.311 83.5255 103.935C82.9855 103.714 82.584 103.347 82.321 102.834C82.0851 102.31 82.0775 101.778 82.2983 101.238L84.7227 95.3086C84.9119 94.8458 84.9828 94.4246 84.9354 94.0451C84.8958 93.6464 84.8055 93.3168 84.6643 93.0566C84.531 92.777 84.3645 92.5513 84.1646 92.3796C83.9726 92.1886 83.7609 92.0457 83.5295 91.9511C83.2981 91.8565 83.047 91.8101 82.7762 91.8119C82.5325 91.8023 82.2652 91.8506 81.9742 91.9567C81.6911 92.0435 81.3958 92.2154 81.0882 92.4723C80.7885 92.7098 80.5344 93.0561 80.3259 93.511L77.9016 99.4408C77.3128 100.551 76.4202 100.917 75.2238 100.54C74.6838 100.32 74.2823 99.953 74.0193 99.4403C73.7834 98.9163 73.7758 98.3842 73.9966 97.8443L76.4209 91.9145C76.6102 91.4517 76.6811 91.0305 76.6337 90.651C76.5941 90.2522 76.5038 89.9227 76.3626 89.6624C76.2293 89.3829 76.0628 89.1572 75.8629 88.9855C75.6709 88.7944 75.4592 88.6516 75.2278 88.557C74.9964 88.4624 74.7453 88.416 74.4744 88.4178C74.2308 88.4082 73.9635 88.4565 73.6725 88.5626C73.3894 88.6494 73.0941 88.8213 72.7865 89.0782C72.4868 89.3157 72.2327 89.662 72.0242 90.1169L69.5998 96.0467C69.0304 97.1643 68.1474 97.5348 66.951 97.1582C66.411 96.9374 66.0095 96.5707 65.7465 96.058C65.5106 95.534 65.503 95.002 65.7238 94.462L68.2428 88.3008C68.7071 87.2752 69.3147 86.4771 70.0657 85.9064C70.8167 85.3356 71.5818 84.9507 72.361 84.7516C73.148 84.5332 73.907 84.4383 74.638 84.4671C75.3882 84.5038 76.0912 84.6561 76.7468 84.9242ZM99.4662 91.7821L94.9605 102.803C94.7634 103.285 94.9116 103.638 95.4051 103.862L105.529 108.002C105.903 108.132 106.285 108.108 106.673 107.929C107.069 107.731 107.404 107.463 107.677 107.124C107.978 106.774 108.211 106.397 108.376 105.992C108.534 105.606 108.624 105.193 108.647 104.752C108.697 104.3 108.646 103.874 108.494 103.474C108.35 103.056 108.095 102.771 107.729 102.621L100.324 99.5939C99.7838 99.3731 99.3959 99.0007 99.16 98.4766C98.9513 97.9411 98.9573 97.4034 99.1781 96.8635C99.3988 96.3235 99.7769 95.9492 100.312 95.7405C100.837 95.5046 101.369 95.4971 101.908 95.7178L109.198 98.698C110.54 99.2692 111.491 100.108 112.051 101.215C112.639 102.311 112.922 103.406 112.902 104.5C112.91 105.584 112.708 106.627 112.298 107.629C111.904 108.594 111.321 109.469 110.549 110.257C109.785 111.024 108.815 111.607 107.64 112.004C106.473 112.382 105.029 112.253 103.308 111.617L91.1592 106.65C90.6192 106.43 90.2274 106.067 89.9836 105.562C89.7477 105.038 89.7305 104.502 89.932 103.954L95.5613 90.1856C95.782 89.6456 96.1562 89.2809 96.6838 89.0915C97.2385 88.8907 97.7859 88.9007 98.3258 89.1214C99.4435 89.6909 99.8236 90.5778 99.4662 91.7821ZM118.725 117.921C117.052 117.169 115.931 116.25 115.363 115.162C114.803 114.055 114.519 112.96 114.512 111.877C114.513 110.774 114.71 109.741 115.104 108.777C115.514 107.774 116.092 106.884 116.836 106.109C117.608 105.321 118.578 104.739 119.745 104.361C120.94 103.971 122.216 104.043 123.574 104.576L132.946 108.407C134.288 108.978 135.239 109.817 135.799 110.924C136.387 112.02 136.671 113.115 136.651 114.21C136.658 115.293 136.456 116.336 136.047 117.339C135.652 118.303 135.069 119.179 134.297 119.966C133.533 120.734 132.563 121.316 131.388 121.714C130.221 122.092 128.777 121.963 127.056 121.327L118.725 117.921ZM121.874 108.404C121.507 108.255 121.126 108.279 120.73 108.477C120.341 108.656 119.997 108.92 119.697 109.27C119.423 109.608 119.208 109.97 119.05 110.356C118.884 110.761 118.777 111.19 118.727 111.642C118.704 112.083 118.765 112.513 118.908 112.932C119.06 113.331 119.315 113.616 119.674 113.785L129.277 117.711C129.651 117.841 130.033 117.817 130.421 117.638C130.817 117.44 131.152 117.172 131.425 116.834C131.726 116.484 131.959 116.106 132.124 115.701C132.282 115.316 132.372 114.902 132.395 114.462C132.445 114.009 132.394 113.583 132.242 113.184C132.098 112.765 131.843 112.48 131.477 112.331L121.874 108.404ZM145.851 108.552C146.364 108.784 146.728 109.158 146.945 109.674C147.17 110.171 147.185 110.684 146.991 111.213L141.197 125.386C140.608 126.496 139.715 126.862 138.519 126.486C137.979 126.265 137.577 125.898 137.314 125.386C137.078 124.862 137.071 124.33 137.292 123.79L143.086 109.616C143.326 109.084 143.71 108.723 144.238 108.534C144.773 108.325 145.311 108.331 145.851 108.552ZM151.75 115.758C152.263 115.99 152.628 116.364 152.844 116.88C153.069 117.377 153.084 117.89 152.891 118.418L148.799 128.427C148.21 129.537 147.317 129.903 146.121 129.526C145.581 129.306 145.18 128.939 144.916 128.426C144.681 127.902 144.673 127.37 144.894 126.83L148.986 116.822C149.226 116.29 149.61 115.929 150.137 115.74C150.673 115.531 151.21 115.537 151.75 115.758ZM150.858 111.004C151.079 110.464 151.499 110.096 152.12 109.899C152.74 109.703 153.378 109.739 154.034 110.007C154.69 110.275 155.17 110.696 155.475 111.271C155.78 111.846 155.822 112.404 155.602 112.943C155.373 113.503 154.949 113.881 154.328 114.077C153.708 114.273 153.069 114.238 152.414 113.97C151.758 113.702 151.278 113.28 150.973 112.705C150.667 112.13 150.629 111.563 150.858 111.004ZM157.573 133.803C155.9 133.052 154.779 132.132 154.211 131.045C153.65 129.938 153.367 128.843 153.359 127.759C153.36 126.657 153.557 125.623 153.952 124.659C154.362 123.656 154.939 122.767 155.684 121.991C156.456 121.204 157.425 120.621 158.593 120.243C159.787 119.854 161.064 119.926 162.421 120.458L173.413 124.952C173.953 125.173 174.327 125.551 174.536 126.086C174.772 126.611 174.78 127.143 174.559 127.683C174.338 128.222 173.956 128.606 173.413 128.834C172.896 129.051 172.368 129.049 171.828 128.828L160.721 124.287C160.355 124.137 159.973 124.161 159.577 124.359C159.189 124.538 158.844 124.803 158.544 125.152C158.271 125.491 158.055 125.853 157.897 126.239C157.732 126.644 157.624 127.072 157.574 127.524C157.552 127.965 157.612 128.395 157.756 128.814C157.908 129.214 158.163 129.498 158.521 129.667L169.629 134.208C170.169 134.429 170.543 134.807 170.752 135.343C170.988 135.867 170.995 136.399 170.774 136.939C170.554 137.479 170.176 137.853 169.64 138.062C169.116 138.298 168.584 138.305 168.044 138.084L157.573 133.803Z" fill="#FFE8E8"/>
</g>
<defs>
<clipPath id="clip0_61_2">
<rect width="171" height="216" fill="white" transform="translate(0 69.5479) rotate(-23.9985)"/>
</clipPath>
</defs>
</svg>
