<svg width="231" height="95" viewBox="0 0 231 95" fill="none" xmlns="http://www.w3.org/2000/svg">
<g clip-path="url(#clip0_79_9)">
<path d="M94.3956 81.791C98.0905 86.9586 101.486 92.7841 108.627 91.0079C110.937 90.4331 113.17 88.7705 114.294 86.7286C115.522 84.4988 115.149 79.5323 115.455 80.3819C119.189 90.7679 138.933 92.2394 138.991 79.2904C138.993 78.9119 136.335 74.805 136.959 74.8264C140.253 74.9394 143.133 78.7054 147.122 78.8573C153.738 79.1092 163.2 74.6751 163.538 67.446C163.626 65.559 160.388 58.2445 162.306 57.8826C172.255 56.0047 172.796 43.9216 163.61 40.4364C160.653 39.3144 160.55 40.5719 161.957 37.982C164.898 32.5677 159.593 26.6425 156.082 23.0249C155.552 22.4791 144.406 13.9402 145.498 17.504C145.625 17.9175 146.239 15.5699 146.241 15.425C146.3 9.87155 140.646 6.81509 136.069 4.64312C134.745 4.01487 121.365 -1.45069 122.304 4.86256C122.79 8.13307 124.59 5.70099 119.721 2.91929C113.844 -0.438544 86.0485 0.485764 97.4745 11.1226C100.372 13.8202 93.2386 9.40382 90.3757 9.50564C85.6964 9.67206 78.3071 13.6587 76.4966 18.1508C75.3751 20.9334 78.9004 22.5566 78.3999 22.3376C72.3504 19.6905 67.7284 24.9893 64.8606 29.412C62.535 32.9987 62.4805 38.3836 67.5396 39.6164C71.1041 40.485 65.9826 37.381 63.0596 40.8118C58.9337 45.6546 53.394 53.787 54.4965 60.3514C55.2389 64.7718 60.0804 68.3933 64.1931 64.8386C64.6776 64.4199 66.2891 61.4133 64.8696 62.5315C63.0112 63.9954 61.5046 67.2639 61.0091 69.4614C59.7963 74.8393 60.9771 82.2758 68.5799 80.8815C72.4846 80.1654 72.8701 75.5136 72.4105 80.7053C72.1423 83.7352 72.3087 86.7209 74.1935 89.2638C78.1948 94.6623 84.8174 91.9499 86.2594 86.1338C87.0735 82.8506 84.7286 86.9578 86.2234 90.1936C87.4019 92.7448 91.8359 94.0744 94.4558 93.9993C98.5646 93.8815 97.4256 82.882 97.697 80.2318" fill="#8898F3"/>
<path d="M94.3956 81.791C98.0905 86.9586 101.486 92.7841 108.627 91.0079C110.937 90.4331 113.17 88.7705 114.294 86.7286C115.522 84.4988 115.149 79.5323 115.455 80.3819C119.189 90.7679 138.933 92.2394 138.991 79.2904C138.993 78.9119 136.335 74.805 136.959 74.8264C140.253 74.9394 143.133 78.7054 147.122 78.8573C153.738 79.1092 163.2 74.6751 163.538 67.446C163.626 65.559 160.388 58.2445 162.306 57.8826C172.255 56.0047 172.796 43.9216 163.61 40.4364C160.653 39.3144 160.55 40.5719 161.957 37.982C164.898 32.5677 159.593 26.6425 156.082 23.0249C155.552 22.4791 144.406 13.9402 145.498 17.504C145.625 17.9175 146.239 15.5699 146.241 15.425C146.3 9.87155 140.646 6.81509 136.069 4.64312C134.745 4.01487 121.365 -1.45069 122.304 4.86256C122.79 8.13307 124.59 5.70099 119.721 2.91929C113.844 -0.438544 86.0485 0.485764 97.4745 11.1226C100.372 13.8202 93.2386 9.40382 90.3757 9.50564C85.6964 9.67206 78.3071 13.6587 76.4966 18.1508C75.3751 20.9334 78.9004 22.5566 78.3999 22.3376C72.3504 19.6905 67.7284 24.9893 64.8606 29.412C62.535 32.9987 62.4805 38.3836 67.5396 39.6164C71.1041 40.485 65.9826 37.381 63.0596 40.8118C58.9337 45.6546 53.394 53.787 54.4965 60.3514C55.2389 64.7718 60.0804 68.3933 64.1931 64.8386C64.6776 64.4199 66.2891 61.4133 64.8696 62.5315C63.0112 63.9954 61.5046 67.2639 61.0091 69.4614C59.7963 74.8393 60.9771 82.2758 68.5799 80.8815C72.4846 80.1654 72.8701 75.5136 72.4105 80.7053C72.1423 83.7352 72.3087 86.7209 74.1935 89.2638C78.1948 94.6623 84.8174 91.9499 86.2594 86.1338C87.0735 82.8506 84.7286 86.9578 86.2234 90.1936C87.4019 92.7448 91.8359 94.0744 94.4558 93.9993C98.5646 93.8815 97.4256 82.882 97.697 80.2318" stroke="black" stroke-width="0.8751"/>
</g>
<path d="M9.09375 15.6875C8.30208 15.7292 7.63542 16.0312 7.09375 16.5938C6.57292 17.1562 6.19792 17.8021 5.96875 18.5312C5.73958 19.2396 5.625 19.9688 5.625 20.7188C5.625 21.4688 5.72917 22.2083 5.9375 22.9375C6.16667 23.6667 6.55208 24.3125 7.09375 24.875C7.63542 25.4167 8.30208 25.7083 9.09375 25.75H19.4062C20.7188 25.875 21.4375 26.5938 21.5625 27.9062C21.5417 28.4896 21.3229 28.9792 20.9062 29.375C20.4896 29.75 19.9896 29.9375 19.4062 29.9375H9.4375H8C6.54167 29.8542 5.34375 29.3021 4.40625 28.2812C3.46875 27.2396 2.79167 26.0625 2.375 24.75C1.97917 23.4375 1.78125 22.0938 1.78125 20.7188C1.78125 19.6979 1.89583 18.6875 2.125 17.6875C2.35417 16.6875 2.70833 15.7396 3.1875 14.8438C3.6875 13.9271 4.34375 13.1458 5.15625 12.5C5.98958 11.8542 6.9375 11.5208 8 11.5H8.59375H19.4062C20.7188 11.625 21.4375 12.3438 21.5625 13.6562C21.5625 14.2396 21.3438 14.7292 20.9062 15.125C20.4896 15.5 19.9896 15.6875 19.4062 15.6875H9.09375ZM30.9062 29.9375C29.0729 29.875 27.6875 29.4479 26.75 28.6562C25.8125 27.8438 25.1354 26.9375 24.7188 25.9375C24.3021 24.9167 24.0938 23.8854 24.0938 22.8438C24.0938 21.7604 24.2917 20.7188 24.6875 19.7188C25.1042 18.6979 25.7812 17.7917 26.7188 17C27.6771 16.1875 28.8854 15.7708 30.3438 15.75H40.4688C41.9271 15.7708 43.125 16.1875 44.0625 17C45.0208 17.7917 45.6979 18.6979 46.0938 19.7188C46.5104 20.7188 46.7188 21.7604 46.7188 22.8438C46.7188 23.8854 46.5104 24.9167 46.0938 25.9375C45.6771 26.9375 45 27.8438 44.0625 28.6562C43.125 29.4479 41.7396 29.875 39.9062 29.9375H30.9062ZM30.2188 19.9375C29.8229 19.9375 29.4792 20.1042 29.1875 20.4375C28.8958 20.75 28.6771 21.125 28.5312 21.5625C28.4062 21.9792 28.3438 22.3958 28.3438 22.8125C28.3438 23.25 28.4062 23.6875 28.5312 24.125C28.6771 24.5417 28.8958 24.9167 29.1875 25.25C29.4792 25.5625 29.8229 25.7292 30.2188 25.75H40.5938C40.9896 25.7292 41.3333 25.5625 41.625 25.25C41.9167 24.9167 42.125 24.5417 42.25 24.125C42.3958 23.6875 42.4688 23.25 42.4688 22.8125C42.4688 22.3958 42.3958 21.9792 42.25 21.5625C42.125 21.125 41.9167 20.75 41.625 20.4375C41.3333 20.1042 40.9896 19.9375 40.5938 19.9375H30.2188ZM60.2812 15.2812C61.3646 15.2812 62.4271 15.4062 63.4688 15.6562C64.5312 15.9062 65.5417 16.2812 66.5 16.7812C67.4583 17.2604 68.3021 17.9062 69.0312 18.7188C69.7812 19.5312 70.1875 20.5 70.25 21.625V22.9375V28.2812C70.125 29.5312 69.4375 30.2083 68.1875 30.3125C67.6042 30.3125 67.0938 30.125 66.6562 29.75C66.2396 29.3542 66.0312 28.8646 66.0312 28.2812V26.9062V22.5938C65.9896 21.9479 65.7396 21.4167 65.2812 21C64.8438 20.5625 64.3438 20.2188 63.7812 19.9688C63.2396 19.7188 62.6667 19.5312 62.0625 19.4062C61.4792 19.2812 60.8854 19.2188 60.2812 19.2188C59.6771 19.2188 59.0729 19.2812 58.4688 19.4062C57.8854 19.5312 57.3125 19.7188 56.75 19.9688C56.2083 20.2188 55.7083 20.5625 55.25 21C54.8125 21.4167 54.5729 21.9479 54.5312 22.5938V26.9062V28.2812C54.4271 29.5312 53.75 30.2083 52.5 30.3125C51.9167 30.3125 51.4062 30.125 50.9688 29.75C50.5521 29.3542 50.3438 28.8646 50.3438 28.2812V22.9375V21.625C50.4062 20.5 50.8021 19.5312 51.5312 18.7188C52.2604 17.9062 53.1042 17.2604 54.0625 16.7812C55.0208 16.2812 56.0208 15.9062 57.0625 15.6562C58.125 15.4062 59.1979 15.2812 60.2812 15.2812ZM81 11C81.5833 11 82.0833 11.1979 82.5 11.5938C82.9167 11.9688 83.1354 12.4479 83.1562 13.0312V15.75H93.7812C94.3646 15.75 94.8646 15.9479 95.2812 16.3438C95.6771 16.7604 95.875 17.2604 95.875 17.8438C95.875 18.4271 95.6667 18.9271 95.25 19.3438C94.8542 19.7396 94.3646 19.9375 93.7812 19.9375H83.1562V20.5625C83.1354 21.4167 83.1875 22.2083 83.3125 22.9375C83.4583 23.6458 83.7917 24.2812 84.3125 24.8438C84.8333 25.4062 85.4896 25.7083 86.2812 25.75H93.9062C94.4896 25.7708 94.9688 25.9896 95.3438 26.4062C95.7396 26.8229 95.9375 27.3229 95.9375 27.9062C95.9167 28.4688 95.7083 28.9479 95.3125 29.3438C94.9375 29.7188 94.4688 29.9167 93.9062 29.9375H85.2188C83.7604 29.8542 82.5521 29.3646 81.5938 28.4688C80.6562 27.5521 79.9792 26.4375 79.5625 25.125C79.1667 23.8125 78.9583 22.4167 78.9375 20.9375V19.9375H75.3438C74.7604 19.9375 74.2708 19.7292 73.875 19.3125C73.4583 18.9167 73.25 18.4271 73.25 17.8438C73.25 17.2604 73.4479 16.7708 73.8438 16.375C74.2604 15.9583 74.7604 15.75 75.3438 15.75H78.9375V13.0312C78.9583 12.4688 79.1667 12 79.5625 11.625C79.9583 11.2292 80.4375 11.0208 81 11ZM116.406 28.2812V20.75C116.406 20.2292 116.135 19.9583 115.594 19.9375H104.656C104.26 19.9583 103.917 20.1354 103.625 20.4688C103.333 20.7812 103.115 21.1562 102.969 21.5938C102.844 22.0104 102.781 22.4375 102.781 22.875C102.781 23.2917 102.844 23.7188 102.969 24.1562C103.115 24.5729 103.333 24.9479 103.625 25.2812C103.917 25.5938 104.26 25.75 104.656 25.75H112.656C113.24 25.75 113.729 25.9583 114.125 26.375C114.542 26.7708 114.75 27.2604 114.75 27.8438C114.75 28.4271 114.542 28.9167 114.125 29.3125C113.729 29.7292 113.24 29.9375 112.656 29.9375H104.781C103.323 29.9167 102.115 29.5104 101.156 28.7188C100.219 27.9062 99.5417 27 99.125 26C98.7292 24.9792 98.5312 23.9271 98.5312 22.8438C98.5312 21.8021 98.7396 20.7812 99.1562 19.7812C99.5729 18.7604 100.25 17.8542 101.188 17.0625C102.125 16.25 103.51 15.8125 105.344 15.75H118.469C119.052 15.75 119.552 15.9479 119.969 16.3438C120.385 16.7188 120.604 17.1979 120.625 17.7812V28.2812C120.625 28.8646 120.406 29.3542 119.969 29.75C119.552 30.125 119.052 30.3125 118.469 30.3125C117.219 30.2083 116.531 29.5312 116.406 28.2812ZM142.188 20.75C142.188 20.2292 141.917 19.9583 141.375 19.9375H130.438C130.042 19.9583 129.698 20.1354 129.406 20.4688C129.115 20.7812 128.896 21.1562 128.75 21.5938C128.625 22.0104 128.562 22.4375 128.562 22.875C128.562 23.2917 128.625 23.7188 128.75 24.1562C128.896 24.5729 129.115 24.9479 129.406 25.2812C129.698 25.5938 130.042 25.75 130.438 25.75H138.438C139.021 25.75 139.51 25.9583 139.906 26.375C140.323 26.7708 140.531 27.2604 140.531 27.8438C140.531 28.4271 140.323 28.9167 139.906 29.3125C139.51 29.7292 139.021 29.9375 138.438 29.9375H130.562C129.104 29.9167 127.896 29.5104 126.938 28.7188C126 27.9062 125.323 27 124.906 26C124.51 24.9792 124.312 23.9271 124.312 22.8438C124.312 21.8021 124.521 20.7812 124.938 19.7812C125.354 18.7604 126.031 17.8542 126.969 17.0625C127.906 16.25 129.292 15.8125 131.125 15.75H144.25C144.833 15.75 145.333 15.9479 145.75 16.3438C146.167 16.7188 146.385 17.1979 146.406 17.7812V27.6562C146.406 29.3229 146.177 30.8958 145.719 32.375C145.302 33.6875 144.615 34.7917 143.656 35.6875C142.719 36.6042 141.521 37.1042 140.062 37.1875H129.25C128.688 37.1667 128.208 36.9583 127.812 36.5625C127.438 36.1875 127.24 35.7188 127.219 35.1562C127.219 34.5729 127.406 34.0729 127.781 33.6562C128.177 33.2396 128.667 33.0208 129.25 33H139C139.792 32.9583 140.448 32.6562 140.969 32.0938C141.49 31.5312 141.823 30.875 141.969 30.125C142.115 29.375 142.188 28.4062 142.188 27.2188V20.75ZM152.781 15.4375C153.344 15.4583 153.823 15.6667 154.219 16.0625C154.615 16.4375 154.823 16.9062 154.844 17.4688V28.2812C154.719 29.5312 154.031 30.2083 152.781 30.3125C152.198 30.3125 151.688 30.125 151.25 29.75C150.833 29.3542 150.625 28.8646 150.625 28.2812V17.4688C150.646 16.8854 150.865 16.4062 151.281 16.0312C151.698 15.6354 152.198 15.4375 152.781 15.4375ZM150.156 11.375C150.156 10.7917 150.406 10.2917 150.906 9.875C151.406 9.45833 152.01 9.25 152.719 9.25C153.427 9.25 154.031 9.45833 154.531 9.875C155.031 10.2917 155.281 10.7917 155.281 11.375C155.281 11.9792 155.031 12.4896 154.531 12.9062C154.031 13.3229 153.427 13.5312 152.719 13.5312C152.01 13.5312 151.406 13.3229 150.906 12.9062C150.406 12.4896 150.156 11.9792 150.156 11.375ZM165.125 29.9375C163.292 29.875 161.906 29.4479 160.969 28.6562C160.031 27.8438 159.354 26.9375 158.938 25.9375C158.521 24.9167 158.312 23.8854 158.312 22.8438C158.312 21.7604 158.51 20.7188 158.906 19.7188C159.323 18.6979 160 17.7917 160.938 17C161.896 16.1875 163.104 15.7708 164.562 15.75H174.688C176.146 15.7708 177.344 16.1875 178.281 17C179.24 17.7917 179.917 18.6979 180.312 19.7188C180.729 20.7188 180.938 21.7604 180.938 22.8438C180.938 23.8854 180.729 24.9167 180.312 25.9375C179.896 26.9375 179.219 27.8438 178.281 28.6562C177.344 29.4479 175.958 29.875 174.125 29.9375H165.125ZM164.438 19.9375C164.042 19.9375 163.698 20.1042 163.406 20.4375C163.115 20.75 162.896 21.125 162.75 21.5625C162.625 21.9792 162.562 22.3958 162.562 22.8125C162.562 23.25 162.625 23.6875 162.75 24.125C162.896 24.5417 163.115 24.9167 163.406 25.25C163.698 25.5625 164.042 25.7292 164.438 25.75H174.812C175.208 25.7292 175.552 25.5625 175.844 25.25C176.135 24.9167 176.344 24.5417 176.469 24.125C176.615 23.6875 176.688 23.25 176.688 22.8125C176.688 22.3958 176.615 21.9792 176.469 21.5625C176.344 21.125 176.135 20.75 175.844 20.4375C175.552 20.1042 175.208 19.9375 174.812 19.9375H164.438ZM194.5 30.4688C193.417 30.4688 192.344 30.3438 191.281 30.0938C190.24 29.8438 189.24 29.4792 188.281 29C187.323 28.5 186.479 27.8438 185.75 27.0312C185.021 26.2188 184.625 25.25 184.562 24.125V22.8125V17.4688C184.562 16.8854 184.771 16.4062 185.188 16.0312C185.625 15.6354 186.135 15.4375 186.719 15.4375C187.969 15.5417 188.646 16.2188 188.75 17.4688V18.8438V23.1562C188.792 23.8021 189.031 24.3438 189.469 24.7812C189.927 25.1979 190.427 25.5312 190.969 25.7812C191.531 26.0312 192.104 26.2188 192.688 26.3438C193.292 26.4688 193.896 26.5312 194.5 26.5312C195.104 26.5312 195.698 26.4688 196.281 26.3438C196.885 26.2188 197.458 26.0312 198 25.7812C198.562 25.5312 199.062 25.1979 199.5 24.7812C199.958 24.3438 200.208 23.8021 200.25 23.1562V18.8438V17.4688C200.25 16.8854 200.458 16.4062 200.875 16.0312C201.312 15.6354 201.823 15.4375 202.406 15.4375C203.656 15.5417 204.344 16.2188 204.469 17.4688V22.8125V24.125C204.406 25.25 204 26.2188 203.25 27.0312C202.521 27.8438 201.677 28.5 200.719 29C199.76 29.4792 198.75 29.8438 197.688 30.0938C196.646 30.3438 195.583 30.4688 194.5 30.4688ZM228.312 17.5625C228.312 18.0833 228.104 18.5208 227.688 18.875C227.292 19.2083 226.802 19.375 226.219 19.375H213C212.729 19.375 212.51 19.4271 212.344 19.5312C212.177 19.6354 212.052 19.75 211.969 19.875C211.885 19.9792 211.844 20.0729 211.844 20.1562C211.844 20.2604 211.885 20.375 211.969 20.5C212.052 20.6042 212.177 20.7083 212.344 20.8125C212.51 20.8958 212.729 20.9479 213 20.9688H223.219C224.531 20.9896 225.615 21.25 226.469 21.75C227.323 22.2292 227.927 22.8021 228.281 23.4688C228.656 24.1146 228.844 24.7708 228.844 25.4375C228.844 26.0833 228.656 26.7396 228.281 27.4062C227.906 28.0521 227.292 28.625 226.438 29.125C225.604 29.6042 224.531 29.8438 223.219 29.8438C222.99 29.8646 222.823 29.875 222.719 29.875H210.594C210.01 29.875 209.51 29.7083 209.094 29.375C208.698 29.0208 208.5 28.5938 208.5 28.0938C208.5 27.5729 208.708 27.1354 209.125 26.7812C209.521 26.4479 210.01 26.2812 210.594 26.2812H223.469C223.781 26.3021 224.031 26.2604 224.219 26.1562C224.427 26.0521 224.583 25.9375 224.688 25.8125C224.792 25.6875 224.844 25.5625 224.844 25.4375C224.844 25.375 224.792 25.2708 224.688 25.125C224.583 24.9583 224.427 24.8333 224.219 24.75C224.031 24.6458 223.781 24.5833 223.469 24.5625H213.219C212.01 24.5417 211.01 24.2917 210.219 23.8125C209.427 23.3125 208.865 22.7396 208.531 22.0938C208.198 21.4479 208.031 20.8021 208.031 20.1562C208.031 19.5104 208.198 18.875 208.531 18.25C208.885 17.6042 209.448 17.0521 210.219 16.5938C211.01 16.1146 212.01 15.8542 213.219 15.8125C213.427 15.7917 213.583 15.7812 213.688 15.7812H226.219C226.802 15.7812 227.292 15.9583 227.688 16.3125C228.104 16.6458 228.312 17.0625 228.312 17.5625Z" fill="#FFFEF5"/>
<defs>
<clipPath id="clip0_79_9">
<rect width="118" height="95" fill="white" transform="translate(53)"/>
</clipPath>
</defs>
</svg>
