<svg width="290" height="228" viewBox="0 0 290 228" fill="none" xmlns="http://www.w3.org/2000/svg">
<g clip-path="url(#clip0_81_19)">
<path d="M239.426 113.271C239.452 113.084 239.441 112.893 239.394 112.71L229.323 75.038C229.275 74.8547 229.191 74.6825 229.076 74.5316C228.961 74.3807 228.818 74.2544 228.655 74.1595L212.763 64.9845C212.43 64.7936 212.034 64.7424 211.663 64.842L35.9848 112.087C35.801 112.136 35.6287 112.22 35.4774 112.336C35.3261 112.451 35.1995 112.595 35.1045 112.76C35.009 112.925 34.9476 113.107 34.9229 113.296C34.8987 113.484 34.9115 113.676 34.9613 113.86L45.013 151.528C45.0278 151.554 45.0412 151.58 45.0527 151.608C45.0939 151.73 45.152 151.845 45.2256 151.95L45.3069 152.069C45.4119 152.204 45.5419 152.318 45.6904 152.404L61.5866 161.582C61.7531 161.679 61.9374 161.742 62.1285 161.767C62.3144 161.79 62.5028 161.777 62.6839 161.73L163.081 134.73L175.618 131.359L238.362 114.485C238.636 114.408 238.883 114.253 239.071 114.038C239.259 113.822 239.379 113.557 239.417 113.274L239.426 113.271ZM225.656 114.903L213.282 107.759L221.871 105.449L234.228 112.584L225.656 114.903ZM213.096 118.29L200.738 111.155L209.335 108.843L221.687 115.975L213.096 118.29ZM200.545 121.661L188.193 114.529L196.781 112.219L209.139 119.354L200.545 121.661ZM187.996 125.04L175.644 117.908L184.236 115.593L196.588 122.725L187.996 125.04ZM175.458 128.403L163.099 121.268L171.693 118.961L184.046 126.093L175.458 128.403ZM162.907 131.774L150.554 124.642L159.142 122.332L171.522 129.48L162.907 131.774ZM150.358 135.153L138.006 128.021L146.613 125.715L158.966 132.847L150.358 135.153ZM137.797 138.518L125.455 131.392L134.061 129.064L146.413 136.195L137.797 138.518ZM125.246 141.888L112.888 134.753L121.476 132.444L133.834 139.579L125.246 141.888ZM112.704 145.292L100.347 138.158L108.943 135.846L121.296 142.978L112.704 145.292ZM100.159 148.667L87.8009 141.532L96.3897 139.222L108.748 146.357L100.159 148.667ZM87.6047 152.043L75.2523 144.911L83.8441 142.596L96.2019 149.731L87.6047 152.043ZM75.0596 155.416L62.7018 148.282L71.2955 145.975L83.6479 153.107L75.0596 155.416ZM223.336 102.947L221.027 94.3452L233.379 101.477L235.678 110.072L223.336 102.947ZM232.338 97.5273L219.986 90.3958L217.689 81.7941L230.047 88.9291L232.338 97.5273ZM228.99 84.9702L216.633 77.8357L214.339 69.2429L226.691 76.3744L228.99 84.9702ZM210.992 68.0034L213.969 79.1537L217.319 91.7049L220.294 102.861L47.435 149.37L38.1278 114.51L210.992 68.0034ZM50.1657 151.639L58.754 149.33L71.1278 156.474L62.5342 158.78L50.1657 151.639Z" fill="#A1540D"/>
<path d="M239.426 113.271C239.452 113.084 239.441 112.893 239.394 112.71L229.323 75.038C229.275 74.8547 229.191 74.6825 229.076 74.5316C228.961 74.3807 228.818 74.2544 228.655 74.1595L212.763 64.9845C212.43 64.7936 212.034 64.7424 211.663 64.842L35.9848 112.087C35.801 112.136 35.6287 112.22 35.4774 112.336C35.3261 112.451 35.1995 112.595 35.1045 112.76C35.009 112.925 34.9476 113.107 34.9229 113.296C34.8987 113.484 34.9115 113.676 34.9613 113.86L45.013 151.528C45.0278 151.554 45.0412 151.58 45.0527 151.608C45.0939 151.73 45.152 151.845 45.2256 151.95L45.3069 152.069C45.4119 152.204 45.5419 152.318 45.6904 152.404L61.5866 161.582C61.7531 161.679 61.9374 161.742 62.1285 161.767C62.3144 161.79 62.5028 161.777 62.6839 161.73L163.081 134.73L175.618 131.359L238.362 114.485C238.636 114.408 238.883 114.253 239.071 114.038C239.259 113.822 239.379 113.557 239.417 113.274L239.426 113.271ZM225.656 114.903L213.282 107.759L221.871 105.449L234.228 112.584L225.656 114.903ZM213.096 118.29L200.738 111.155L209.335 108.843L221.687 115.975L213.096 118.29ZM200.545 121.661L188.193 114.529L196.781 112.219L209.139 119.354L200.545 121.661ZM187.996 125.04L175.644 117.908L184.236 115.593L196.588 122.725L187.996 125.04ZM175.458 128.403L163.099 121.268L171.693 118.961L184.046 126.093L175.458 128.403ZM162.907 131.774L150.554 124.642L159.142 122.332L171.522 129.48L162.907 131.774ZM150.358 135.153L138.006 128.021L146.613 125.715L158.966 132.847L150.358 135.153ZM137.797 138.518L125.455 131.392L134.061 129.064L146.413 136.195L137.797 138.518ZM125.246 141.888L112.888 134.753L121.476 132.444L133.834 139.579L125.246 141.888ZM112.704 145.292L100.347 138.158L108.943 135.846L121.296 142.978L112.704 145.292ZM100.159 148.667L87.8009 141.532L96.3897 139.222L108.748 146.357L100.159 148.667ZM87.6047 152.043L75.2523 144.911L83.8441 142.596L96.2019 149.731L87.6047 152.043ZM75.0596 155.416L62.7018 148.282L71.2955 145.975L83.6479 153.107L75.0596 155.416ZM223.336 102.947L221.027 94.3452L233.379 101.477L235.678 110.072L223.336 102.947ZM232.338 97.5273L219.986 90.3958L217.689 81.7941L230.047 88.9291L232.338 97.5273ZM228.99 84.9702L216.633 77.8357L214.339 69.2429L226.691 76.3744L228.99 84.9702ZM210.992 68.0034L213.969 79.1537L217.319 91.7049L220.294 102.861L47.435 149.37L38.1278 114.51L210.992 68.0034ZM50.1657 151.639L58.754 149.33L71.1278 156.474L62.5342 158.78L50.1657 151.639Z" fill="black" fill-opacity="0.2"/>
</g>
<g filter="url(#filter0_d_81_19)">
<path d="M14.122 149.428C14.3428 150.664 13.866 151.503 12.6918 151.944C12.1306 152.104 11.5884 152.062 11.0652 151.821C10.5564 151.554 10.2224 151.14 10.0633 150.578L6.03966 136.388C5.90058 135.821 5.98032 135.3 6.27889 134.826C6.57178 134.331 6.99883 134.005 7.56004 133.845L20.1873 130.265C21.9681 129.825 23.4118 129.838 24.5183 130.304C25.6192 130.75 26.4979 131.367 27.1545 132.155C27.8111 132.943 28.2701 133.798 28.5316 134.72C28.8043 135.682 28.8682 136.671 28.7231 137.687C28.598 138.697 28.1767 139.693 27.4593 140.676C26.7563 141.633 25.7004 142.301 24.2917 142.679L16.7154 144.827C16.1542 144.986 15.6263 144.919 15.1318 144.626C14.623 144.359 14.289 143.945 14.1299 143.384C13.9708 142.823 14.0276 142.298 14.3005 141.809C14.5877 141.294 15.0119 140.957 15.5731 140.798L23.3298 138.599C23.7106 138.491 23.9872 138.283 24.1595 137.974C24.3462 137.639 24.4542 137.295 24.4835 136.94C24.5072 136.565 24.4707 136.207 24.3741 135.867C24.2832 135.546 24.1321 135.242 23.9209 134.956C23.704 134.649 23.4312 134.412 23.1025 134.246C22.7881 134.053 22.4376 134.001 22.0511 134.089L11.4683 137.09C10.9529 137.258 10.7662 137.592 10.9083 138.093L14.122 149.428ZM51.3122 138.883L49.2578 131.637C49.1157 131.136 48.7813 130.949 48.2545 131.077L37.7318 134.061C37.3566 134.189 37.0742 134.453 36.8846 134.853C36.6892 135.233 36.581 135.654 36.5601 136.114C36.5535 136.549 36.6099 136.977 36.7292 137.398C36.8429 137.799 37.0195 138.193 37.2591 138.58C37.5131 138.941 37.8258 139.242 38.1973 139.483C38.5632 139.704 38.9365 139.761 39.3173 139.653L47.0139 137.47C47.5752 137.311 48.103 137.378 48.5975 137.671C49.1063 137.938 49.4403 138.352 49.5994 138.914C49.7586 139.475 49.6917 140.003 49.3988 140.497C49.1316 141.006 48.7175 141.34 48.1562 141.499L40.5799 143.647C39.1712 144.025 37.8979 143.964 36.7599 143.464C35.6363 142.938 34.7377 142.25 34.0641 141.402C33.4048 140.528 32.9274 139.57 32.6319 138.527C32.3477 137.525 32.2697 136.486 32.3977 135.411C32.5201 134.315 32.9243 133.258 33.6103 132.241C34.2906 131.203 35.5041 130.405 37.2509 129.844L49.8781 126.264C50.4393 126.105 50.9744 126.159 51.4832 126.426C51.9864 126.673 52.3275 127.075 52.5067 127.63L55.371 137.732C55.5301 138.293 55.4532 138.824 55.1403 139.324C54.8417 139.798 54.4118 140.115 53.8506 140.274C52.6196 140.515 51.7735 140.051 51.3122 138.883ZM57.5364 128.185C57.6445 127.115 58.0415 126.072 58.7275 125.054C59.4278 124.011 60.4767 123.281 61.874 122.863L73.1784 119.657C73.7396 119.498 74.2674 119.565 74.7619 119.858C75.2707 120.125 75.6047 120.539 75.7639 121.101C75.923 121.662 75.8589 122.2 75.5717 122.714C75.2989 123.203 74.8819 123.527 74.3207 123.686L62.896 126.925C62.5152 127.033 62.23 127.288 62.0403 127.688C61.8449 128.068 61.7267 128.491 61.6857 128.958C61.6648 129.418 61.7083 129.839 61.8163 130.22L63.3081 135.481C63.5288 136.718 63.0521 137.557 61.8779 137.998C61.3167 138.157 60.7745 138.116 60.2513 137.875C59.7424 137.608 59.4085 137.193 59.2493 136.632L57.766 131.401L57.7961 131.392C57.5006 130.35 57.414 129.281 57.5364 128.185ZM83.3975 111.823C83.9587 111.664 84.4937 111.718 85.0025 111.985C85.5057 112.232 85.8469 112.633 86.026 113.189L86.7677 115.804L96.9897 112.906C97.5509 112.747 98.0859 112.801 98.5948 113.068C99.0893 113.361 99.4161 113.788 99.5752 114.349C99.7343 114.91 99.6703 115.448 99.3831 115.963C99.1102 116.452 98.6932 116.776 98.132 116.935L87.91 119.833L88.0805 120.434C88.2934 121.262 88.5595 122.009 88.8787 122.677C89.2122 123.318 89.7062 123.839 90.3607 124.238C91.0152 124.637 91.729 124.748 92.502 124.573L99.8378 122.493C100.405 122.354 100.925 122.433 101.4 122.732C101.894 123.025 102.221 123.452 102.38 124.013C102.514 124.56 102.444 125.078 102.171 125.566C101.913 126.03 101.516 126.348 100.98 126.521L92.6221 128.891C91.1964 129.209 89.9003 129.067 88.7339 128.467C87.5819 127.841 86.6265 126.953 85.8676 125.804C85.1287 124.649 84.5475 123.363 84.124 121.946L83.8512 120.984L80.3938 121.964C79.8325 122.123 79.3047 122.056 78.8102 121.764C78.3014 121.496 77.9674 121.082 77.8083 120.521C77.6491 119.96 77.706 119.435 77.9788 118.946C78.266 118.431 78.6903 118.095 79.2515 117.935L82.7089 116.955L81.9673 114.34C81.8339 113.793 81.9064 113.285 82.185 112.816C82.4578 112.327 82.862 111.996 83.3975 111.823ZM103.94 110.611C104.486 110.477 105.004 110.547 105.493 110.82C105.976 111.073 106.305 111.467 106.478 112.002L109.428 122.405C109.648 123.641 109.172 124.48 107.997 124.921C107.436 125.081 106.894 125.039 106.371 124.798C105.862 124.531 105.528 124.117 105.369 123.555L102.419 113.153C102.28 112.586 102.36 112.065 102.658 111.591C102.951 111.096 103.378 110.77 103.94 110.611ZM100.306 107.418C100.147 106.857 100.251 106.308 100.618 105.771C100.986 105.233 101.51 104.868 102.192 104.675C102.873 104.482 103.511 104.517 104.106 104.782C104.701 105.046 105.077 105.459 105.237 106.02C105.401 106.601 105.3 107.161 104.933 107.698C104.565 108.235 104.041 108.6 103.36 108.794C102.678 108.987 102.04 108.951 101.445 108.687C100.851 108.422 100.471 107.999 100.306 107.418ZM119.65 121.228C117.87 121.668 116.42 121.635 115.302 121.129C114.179 120.603 113.28 119.916 112.606 119.067C111.927 118.199 111.445 117.263 111.161 116.261C110.866 115.219 110.772 114.163 110.88 113.093C111.002 111.997 111.407 110.94 112.093 109.923C112.793 108.88 113.842 108.149 115.239 107.732L126.664 104.492C127.225 104.333 127.753 104.4 128.247 104.693C128.756 104.96 129.09 105.374 129.249 105.935C129.408 106.497 129.344 107.034 129.057 107.549C128.784 108.038 128.367 108.362 127.806 108.521L116.261 111.794C115.88 111.902 115.595 112.156 115.405 112.557C115.21 112.937 115.102 113.357 115.081 113.818C115.074 114.253 115.128 114.671 115.241 115.072C115.361 115.493 115.54 115.897 115.78 116.283C116.034 116.644 116.347 116.946 116.718 117.187C117.084 117.408 117.46 117.474 117.847 117.386L129.392 114.113C129.953 113.954 130.481 114.021 130.975 114.314C131.484 114.581 131.818 114.995 131.977 115.556C132.136 116.117 132.069 116.645 131.776 117.14C131.509 117.649 131.095 117.982 130.534 118.142L119.65 121.228ZM133.824 102.137C134.371 102.004 134.889 102.073 135.378 102.346C135.861 102.599 136.189 102.993 136.362 103.529L139.312 113.931C139.533 115.168 139.056 116.007 137.882 116.448C137.321 116.607 136.778 116.566 136.255 116.325C135.746 116.057 135.412 115.643 135.253 115.082L132.304 104.68C132.165 104.113 132.244 103.592 132.543 103.118C132.836 102.623 133.263 102.296 133.824 102.137ZM130.19 98.9447C130.031 98.3835 130.135 97.8343 130.503 97.297C130.87 96.7598 131.395 96.3945 132.076 96.2013C132.758 96.0081 133.396 96.0437 133.99 96.3082C134.585 96.5727 134.962 96.9855 135.121 97.5467C135.286 98.128 135.185 98.6872 134.817 99.2245C134.45 99.7617 133.925 100.127 133.244 100.32C132.562 100.513 131.924 100.478 131.33 100.213C130.735 99.9489 130.355 99.526 130.19 98.9447ZM148.232 115.949C148.453 117.186 147.976 118.025 146.802 118.466C146.241 118.625 145.696 118.574 145.167 118.313C144.664 118.066 144.332 117.661 144.173 117.1L140.116 102.789C139.977 102.222 140.056 101.702 140.355 101.227C140.648 100.733 141.075 100.406 141.636 100.247L154.263 96.6666C156.044 96.2266 157.496 96.2696 158.62 96.7955C159.738 97.3015 160.636 97.9886 161.316 98.8571C161.989 99.7055 162.468 100.631 162.752 101.633C163.048 102.675 163.134 103.744 163.012 104.84C162.904 105.91 162.5 106.967 161.8 108.01C161.114 109.027 160.072 109.745 158.675 110.163L151.098 112.311C150.537 112.47 150.009 112.403 149.515 112.11C149.006 111.843 148.672 111.429 148.513 110.868C148.354 110.306 148.41 109.781 148.683 109.293C148.97 108.778 149.395 108.441 149.956 108.282L157.652 106.1C158.033 105.992 158.321 105.748 158.517 105.368C158.706 104.967 158.805 104.55 158.811 104.115C158.832 103.654 158.786 103.223 158.672 102.822C158.553 102.401 158.366 102.01 158.112 101.649C157.873 101.263 157.57 100.959 157.204 100.738C156.832 100.496 156.453 100.42 156.067 100.508L145.544 103.491C145.029 103.659 144.842 103.994 144.984 104.495L148.232 115.949ZM184.71 101.059L182.655 93.8134C182.513 93.3123 182.179 93.1256 181.652 93.2533L171.129 96.2369C170.754 96.3649 170.472 96.6291 170.282 97.0293C170.087 97.4095 169.979 97.83 169.958 98.2907C169.951 98.7256 170.007 99.1536 170.127 99.5745C170.24 99.9754 170.417 100.369 170.657 100.756C170.911 101.117 171.223 101.418 171.595 101.659C171.961 101.88 172.334 101.937 172.715 101.829L180.412 99.6467C180.973 99.4876 181.501 99.5544 181.995 99.8473C182.504 100.114 182.838 100.529 182.997 101.09C183.156 101.651 183.089 102.179 182.796 102.673C182.529 103.182 182.115 103.516 181.554 103.675L173.978 105.824C172.569 106.201 171.295 106.14 170.158 105.64C169.034 105.114 168.135 104.427 167.462 103.578C166.802 102.704 166.325 101.746 166.029 100.704C165.745 99.7016 165.667 98.6627 165.795 97.5869C165.918 96.4911 166.322 95.4346 167.008 94.4172C167.688 93.3798 168.902 92.5809 170.649 92.0207L183.276 88.4404C183.837 88.2812 184.372 88.3352 184.881 88.6024C185.384 88.8495 185.725 89.2508 185.904 89.8064L188.769 99.9082C188.928 100.469 188.851 101 188.538 101.5C188.239 101.975 187.809 102.291 187.248 102.451C186.017 102.691 185.171 102.227 184.71 101.059ZM194.457 80.3328C195.018 80.1737 195.553 80.2277 196.062 80.4948C196.565 80.742 196.906 81.1433 197.085 81.6988L197.827 84.3144L208.049 81.4161C208.61 81.257 209.145 81.311 209.654 81.5781C210.149 81.871 210.476 82.2981 210.635 82.8593C210.794 83.4205 210.73 83.9584 210.443 84.4729C210.17 84.9617 209.753 85.2856 209.191 85.4448L198.969 88.3431L199.14 88.9444C199.353 89.7719 199.619 90.5193 199.938 91.1867C200.272 91.8284 200.766 92.3488 201.42 92.7479C202.075 93.147 202.788 93.2586 203.561 93.0827L210.897 91.0027C211.464 90.8636 211.985 90.9434 212.459 91.242C212.954 91.5348 213.281 91.9619 213.44 92.5231C213.573 93.07 213.503 93.5878 213.231 94.0766C212.972 94.5396 212.575 94.8579 212.04 95.0314L203.682 97.4013C202.256 97.7189 200.96 97.5775 199.793 96.9771C198.641 96.3509 197.686 95.4633 196.927 94.3142C196.188 93.1595 195.607 91.8734 195.183 90.456L194.911 89.494L191.453 90.4743C190.892 90.6334 190.364 90.5665 189.87 90.2736C189.361 90.0065 189.027 89.5923 188.868 89.0311C188.709 88.4699 188.765 87.9449 189.038 87.4561C189.326 86.9416 189.75 86.6047 190.311 86.4456L193.768 85.4653L193.027 82.8496C192.893 82.3028 192.966 81.795 193.244 81.3262C193.517 80.8374 193.921 80.5063 194.457 80.3328ZM223.103 91.8944C221.323 92.3343 219.873 92.3014 218.755 91.7955C217.632 91.2695 216.733 90.5823 216.059 89.7339C215.38 88.8655 214.898 87.9302 214.614 86.928C214.319 85.8858 214.225 84.8296 214.333 83.7596C214.455 82.6638 214.86 81.6072 215.546 80.5898C216.246 79.5467 217.295 78.8162 218.692 78.3984L228.433 75.6364C229.842 75.2586 231.108 75.3327 232.232 75.8587C233.37 76.3589 234.268 77.0461 234.927 77.9202C235.601 78.7686 236.086 79.7139 236.381 80.7562C236.665 81.7584 236.746 82.8073 236.624 83.9031C236.496 84.9788 236.092 86.0354 235.411 87.0728C234.725 88.0902 233.509 88.879 231.762 89.4393L223.103 91.8944ZM219.714 82.4612C219.333 82.5691 219.048 82.8233 218.858 83.2235C218.663 83.6037 218.555 84.0242 218.534 84.4849C218.527 84.9198 218.581 85.3377 218.695 85.7386C218.814 86.1595 218.993 86.5634 219.233 86.9502C219.487 87.3113 219.8 87.6124 220.171 87.8535C220.537 88.0746 220.913 88.1412 221.3 88.0532L231.281 85.223C231.656 85.095 231.942 84.8409 232.137 84.4607C232.327 84.0604 232.425 83.6428 232.431 83.2079C232.452 82.7472 232.403 82.3064 232.284 81.8855C232.17 81.4846 231.986 81.1036 231.732 80.7426C231.493 80.3557 231.19 80.0518 230.824 79.8307C230.453 79.5896 230.077 79.523 229.696 79.631L219.714 82.4612ZM239.609 76.5603C239.717 75.4902 240.114 74.4465 240.8 73.4292C241.5 72.386 242.549 71.6556 243.947 71.2377L255.251 68.0325C255.812 67.8733 256.34 67.9402 256.834 68.2331C257.343 68.5003 257.677 68.9144 257.836 69.4756C257.996 70.0369 257.932 70.5747 257.644 71.0893C257.371 71.5781 256.954 71.902 256.393 72.0611L244.969 75.3005C244.588 75.4085 244.303 75.6626 244.113 76.0628C243.918 76.4431 243.799 76.8663 243.758 77.3327C243.737 77.7934 243.781 78.2142 243.889 78.595L245.381 83.8563C245.601 85.093 245.125 85.932 243.95 86.3732C243.389 86.5323 242.847 86.4911 242.324 86.2497C241.815 85.9825 241.481 85.5684 241.322 85.0071L239.839 79.7759L239.869 79.7673C239.573 78.7251 239.487 77.6561 239.609 76.5603ZM262.154 65.6854C262.715 65.5263 263.25 65.5803 263.759 65.8475C264.262 66.0946 264.603 66.4959 264.782 67.0515L265.643 70.088C265.856 70.9155 266.122 71.6629 266.442 72.3303C266.775 72.972 267.269 73.4924 267.924 73.8915C268.578 74.2906 269.292 74.4022 270.065 74.2263L278.092 71.9502L275.833 63.9831C275.674 63.4218 275.744 62.904 276.042 62.4296C276.355 61.9294 276.792 61.5998 277.354 61.4406C278.585 61.1999 279.431 61.6637 279.892 62.8322L282.671 72.6334C283.126 74.2368 283.334 75.8126 283.297 77.3607C283.254 78.7371 282.894 79.9869 282.216 81.1102C281.564 82.2478 280.548 83.0556 279.168 83.5336L268.765 86.4831C268.219 86.6165 267.701 86.5468 267.212 86.274C266.749 86.0155 266.431 85.6185 266.257 85.083C266.098 84.5218 266.142 83.9896 266.389 83.4865C266.656 82.9776 267.068 82.6336 267.623 82.4545L277.003 79.7948C277.754 79.5387 278.303 79.0691 278.65 78.3859C278.998 77.7026 279.139 76.9803 279.075 76.219C279.078 76.1532 279.071 76.0902 279.054 76.0301L270.185 78.5448C268.759 78.8625 267.463 78.7211 266.297 78.1206C265.145 77.4945 264.189 76.6069 263.43 75.4578C262.692 74.3031 262.11 73.017 261.687 71.5996L260.724 68.2023C260.59 67.6554 260.663 67.1476 260.941 66.6789C261.214 66.1901 261.618 65.8589 262.154 65.6854Z" fill="#81430A"/>
</g>
<defs>
<filter id="filter0_d_81_19" x="0.871826" y="54.9252" width="288.399" height="112.222" filterUnits="userSpaceOnUse" color-interpolation-filters="sRGB">
<feFlood flood-opacity="0" result="BackgroundImageFix"/>
<feColorMatrix in="SourceAlpha" type="matrix" values="0 0 0 0 0 0 0 0 0 0 0 0 0 0 0 0 0 0 127 0" result="hardAlpha"/>
<feOffset dy="4"/>
<feGaussianBlur stdDeviation="2"/>
<feComposite in2="hardAlpha" operator="out"/>
<feColorMatrix type="matrix" values="0 0 0 0 0 0 0 0 0 0 0 0 0 0 0 0 0 0 0.25 0"/>
<feBlend mode="normal" in2="BackgroundImageFix" result="effect1_dropShadow_81_19"/>
<feBlend mode="normal" in="SourceGraphic" in2="effect1_dropShadow_81_19" result="shape"/>
</filter>
<clipPath id="clip0_81_19">
<rect width="178" height="160" fill="white" transform="translate(100.207) rotate(30)"/>
</clipPath>
</defs>
</svg>
