<svg width="479" height="98" viewBox="0 0 479 98" fill="none" xmlns="http://www.w3.org/2000/svg">
<path d="M31.5032 16.4504C26.5992 21.0682 23.4663 23.7218 13.0658 27.2147C9.28508 28.4844 4.36641 29.6215 1.06151 30.9729C-0.414317 31.5765 25.1116 30.8918 29.9625 30.9278C55.1797 31.1147 54.129 33.1847 37.9451 36.9491C33.858 37.8997 0.288566 44.8886 21.3008 42.4826C25.4604 42.0063 57.5768 38.4859 58.7503 39.4064C61.1397 41.2805 35.8078 48.5662 31.6077 50.3468C23.7986 53.6576 17.0293 57.1339 9.42711 60.4765C3.40723 63.1234 1.45909 64.5943 16.0429 63.0919C26.0259 62.0635 76.818 55.848 57.1309 63.9841C50.5873 66.6883 17.3546 77.2279 52.2998 73.96C59.2542 73.3098 81.4852 70.1299 89.0963 71.4464C98.1383 73.0102 85.6562 79.199 82.7415 80.8735C79.7203 82.6092 68.7018 87.1768 71.6508 89.1444C73.2711 90.2252 106.045 84.9691 108.543 84.5459C115.817 83.314 123.596 80.8263 133.005 80.7516C138.753 80.7059 145.091 91.4949 147.812 93.1466C161.566 101.497 163.345 78.8935 178.671 85.0789C187.438 88.6171 213.276 103.886 221.091 93.151C223.278 90.1481 224.234 84.3348 241.783 85.5668C255.699 86.5438 266.076 91.8201 276.76 94.1584C298.879 98.9988 285.087 84.1712 287.32 84.7718C297.405 87.4854 308.321 89.1282 323.124 89.6096C328.355 89.7798 360.995 91.0504 360.695 88.7604C360.351 86.1314 334.837 80.7145 342.501 82.4365C355.948 85.4577 371.243 87.0384 388.012 88.3764C393.215 88.7917 420.145 90.4385 415.258 86.7142C411.158 83.5889 392.311 82.1464 384.678 79.5161C382.379 78.7242 393.154 79.4964 393.905 79.5501C404.747 80.3236 416.1 80.5523 427.306 80.5618C443.183 80.5753 461.295 80.5235 474.296 77.7974C489.271 74.6579 435.028 72.1089 430.895 71.5705C425.907 70.9216 446.234 69.071 449.732 68.4108C458.372 66.7782 462.527 64.4065 468.107 62.1276C472.553 60.3117 485.472 57.2558 471.596 56.6482C461.759 56.2173 429.508 56.6412 424.538 54.2587C417.408 50.8422 444.003 43.2828 449.132 40.2172C451.17 38.9959 468.283 31.8184 455.381 34.3088C452.256 34.9121 426.41 38.2874 423.946 36.9491C416.591 32.9537 430.169 25.3251 428.646 20.8275C428.062 19.1004 424.034 12.8111 413.962 15.4431C410.623 16.3156 390.152 23.5687 386.009 23.1109C380.734 22.5279 388.391 10.436 387.315 8.66968C383.97 3.17883 372.734 10.6079 367.746 12.0304C353.729 16.0287 341.092 10.7415 332.212 7.84079C329.927 7.09426 308.983 -1.92423 306.811 1.97304C305.672 4.01679 314.335 15.2626 299.603 10.8289C287.108 7.06841 274.134 3.34983 255.712 1.57554C241.086 0.166954 257.181 9.10521 258.845 10.4788C261.655 12.7969 249.432 9.1926 248.547 8.95652C238.735 6.33695 227.827 4.30828 214.989 2.84033C197.704 0.863839 190.242 0.91596 197.98 5.95714C209.603 13.5302 194.404 8.24767 178.628 6.20107C166.883 4.67735 152.154 3.77086 140.212 5.67256C133.782 6.69659 153.62 13.6629 149.248 13.3291C131.663 11.9862 115.749 8.80854 96.8348 10.8673C79.9782 12.702 106.849 18.3435 113.314 19.7027C124.515 22.058 90.3937 17.8812 87.094 17.2545C83.5419 16.5798 53.1243 12.8216 64.3042 16.6989C117.704 35.2188 36.8768 10.7162 28.9962 17.8733" fill="#FE9696"/>
<path d="M31.5032 16.4504C26.5992 21.0682 23.4663 23.7218 13.0658 27.2147C9.28508 28.4844 4.36641 29.6215 1.06151 30.9729C-0.414317 31.5765 25.1116 30.8918 29.9625 30.9278C55.1797 31.1147 54.129 33.1847 37.9451 36.9491C33.858 37.8997 0.288566 44.8886 21.3008 42.4826C25.4604 42.0063 57.5768 38.4859 58.7503 39.4064C61.1397 41.2805 35.8078 48.5662 31.6077 50.3468C23.7986 53.6576 17.0293 57.1339 9.42711 60.4765C3.40723 63.1234 1.45909 64.5943 16.0429 63.0919C26.0259 62.0635 76.818 55.848 57.1309 63.9841C50.5873 66.6883 17.3546 77.2279 52.2998 73.96C59.2542 73.3098 81.4852 70.1299 89.0963 71.4464C98.1383 73.0102 85.6562 79.199 82.7415 80.8735C79.7203 82.6092 68.7018 87.1768 71.6508 89.1444C73.2711 90.2252 106.045 84.9691 108.543 84.5459C115.817 83.314 123.596 80.8263 133.005 80.7516C138.753 80.7059 145.091 91.4949 147.812 93.1466C161.566 101.497 163.345 78.8935 178.671 85.0789C187.438 88.6171 213.276 103.886 221.091 93.151C223.278 90.1481 224.234 84.3348 241.783 85.5668C255.699 86.5438 266.076 91.8201 276.76 94.1584C298.879 98.9988 285.087 84.1712 287.32 84.7718C297.405 87.4854 308.321 89.1282 323.124 89.6097C328.355 89.7798 360.995 91.0504 360.695 88.7604C360.351 86.1314 334.837 80.7145 342.501 82.4365C355.948 85.4577 371.243 87.0384 388.012 88.3764C393.215 88.7917 420.145 90.4385 415.258 86.7142C411.158 83.5889 392.311 82.1464 384.678 79.5161C382.379 78.7242 393.153 79.4964 393.905 79.5501C404.747 80.3236 416.1 80.5523 427.306 80.5618C443.183 80.5753 461.295 80.5235 474.296 77.7974C489.271 74.6579 435.028 72.1089 430.895 71.5705C425.907 70.9216 446.234 69.071 449.732 68.4108C458.372 66.7782 462.527 64.4065 468.107 62.1276C472.553 60.3117 485.472 57.2558 471.596 56.6482C461.759 56.2173 429.508 56.6412 424.538 54.2587C417.408 50.8422 444.003 43.2828 449.132 40.2172C451.17 38.9959 468.283 31.8184 455.381 34.3088C452.256 34.9121 426.41 38.2874 423.946 36.9491C416.591 32.9537 430.169 25.3251 428.646 20.8275C428.062 19.1004 424.034 12.8111 413.962 15.4431C410.623 16.3156 390.152 23.5687 386.009 23.1109C380.734 22.5279 388.391 10.436 387.315 8.66968C383.97 3.17883 372.734 10.6079 367.746 12.0304C353.729 16.0287 341.092 10.7415 332.212 7.84079C329.927 7.09426 308.983 -1.92423 306.811 1.97304C305.672 4.01679 314.335 15.2626 299.603 10.8289C287.108 7.06841 274.134 3.34983 255.712 1.57554C241.086 0.166954 257.181 9.10521 258.845 10.4788C261.655 12.7969 249.432 9.1926 248.547 8.95652C238.735 6.33694 227.827 4.30828 214.989 2.84033C197.704 0.863839 190.242 0.91596 197.98 5.95714C209.603 13.5302 194.404 8.24767 178.628 6.20107C166.883 4.67735 152.154 3.77086 140.212 5.67256C133.782 6.69659 153.62 13.6629 149.248 13.3291C131.663 11.9862 115.749 8.80854 96.8348 10.8673C79.9783 12.702 106.849 18.3435 113.314 19.7027C124.515 22.058 90.3937 17.8812 87.094 17.2545C83.5419 16.5798 53.1243 12.8216 64.3042 16.6989C117.704 35.2188 36.8768 10.7162 28.9962 17.8733" stroke="black" stroke-width="0.8751"/>
<path d="M113.479 38.8678C113.479 39.4511 113.271 39.9407 112.854 40.3365C112.458 40.7532 111.969 40.9615 111.385 40.9615H98.8855C98.4897 40.9824 98.1563 41.0761 97.8855 41.2428C97.6355 41.3886 97.448 41.5657 97.323 41.774C97.198 41.9615 97.1355 42.1595 97.1355 42.3678C97.1355 42.5761 97.198 42.7845 97.323 42.9928C97.448 43.1803 97.6355 43.3574 97.8855 43.524C98.1563 43.6699 98.4897 43.7532 98.8855 43.774H107.76C109.219 43.8157 110.417 44.1595 111.354 44.8053C112.313 45.4303 112.99 46.1595 113.385 46.9928C113.802 47.8053 114.01 48.6386 114.01 49.4928C114.01 50.3261 113.802 51.1595 113.385 51.9928C112.969 52.8053 112.292 53.5345 111.354 54.1803C110.417 54.8053 109.219 55.1178 107.76 55.1178H107.573C107.448 55.1386 107.323 55.149 107.198 55.149H95.3855C94.8022 55.149 94.3022 54.9511 93.8855 54.5553C93.4897 54.1386 93.2917 53.6386 93.2917 53.0553C93.2917 52.472 93.5001 51.9824 93.9167 51.5865C94.3126 51.1699 94.8022 50.9615 95.3855 50.9615H107.948C108.344 50.9824 108.667 50.9095 108.917 50.7428C109.188 50.5761 109.385 50.3886 109.51 50.1803C109.635 49.9511 109.698 49.722 109.698 49.4928C109.698 49.347 109.635 49.149 109.51 48.899C109.385 48.6282 109.188 48.4095 108.917 48.2428C108.667 48.0761 108.344 47.9824 107.948 47.9615H99.073C97.6147 47.9199 96.4063 47.5865 95.448 46.9615C94.5105 46.3365 93.8334 45.6282 93.4167 44.8365C93.0209 44.024 92.823 43.2011 92.823 42.3678C92.823 41.5553 93.0313 40.7532 93.448 39.9615C93.8647 39.149 94.5417 38.4303 95.4792 37.8053C96.4167 37.1803 97.6147 36.847 99.073 36.8053H99.2605C99.3855 36.7845 99.5105 36.774 99.6355 36.774H111.385C111.969 36.774 112.458 36.9824 112.854 37.399C113.271 37.7949 113.479 38.2845 113.479 38.8678ZM123.917 55.2115C122.083 55.149 120.698 54.722 119.76 53.9303C118.823 53.1178 118.146 52.2115 117.729 51.2115C117.313 50.1907 117.104 49.1595 117.104 48.1178C117.104 47.0345 117.302 45.9928 117.698 44.9928C118.115 43.972 118.792 43.0657 119.729 42.274C120.688 41.4615 121.896 41.0449 123.354 41.024H135.229C135.813 41.024 136.302 41.222 136.698 41.6178C137.115 41.9928 137.323 42.4511 137.323 42.9928C137.323 43.5553 137.115 44.0345 136.698 44.4303C136.302 44.8053 135.813 44.9928 135.229 44.9928H123.542C123.083 44.9928 122.677 45.149 122.323 45.4615C121.99 45.774 121.74 46.1803 121.573 46.6803C121.427 47.1803 121.354 47.6699 121.354 48.149C121.354 48.6699 121.427 49.1803 121.573 49.6803C121.74 50.1803 121.99 50.5865 122.323 50.899C122.677 51.1907 123.083 51.347 123.542 51.3678H135.229C135.813 51.3678 136.302 51.5553 136.698 51.9303C137.115 52.3053 137.323 52.7532 137.323 53.274C137.323 53.8157 137.115 54.274 136.698 54.649C136.302 55.024 135.813 55.2115 135.229 55.2115H123.917ZM136.948 48.0553C136.948 48.4511 136.771 48.7949 136.417 49.0865C136.104 49.3574 135.708 49.4928 135.229 49.4928H125.01C124.531 49.4928 124.125 49.3574 123.792 49.0865C123.458 48.7949 123.292 48.4511 123.292 48.0553C123.292 47.6803 123.458 47.347 123.792 47.0553C124.125 46.7845 124.531 46.649 125.01 46.649H135.229C135.708 46.649 136.115 46.7949 136.448 47.0865C136.781 47.3574 136.948 47.6803 136.948 48.0553ZM143.073 36.274C143.635 36.2949 144.115 36.5032 144.51 36.899C144.906 37.274 145.115 37.7428 145.135 38.3053V53.6178C145.01 54.8678 144.323 55.5449 143.073 55.649C142.49 55.649 141.979 55.4615 141.542 55.0865C141.125 54.6907 140.917 54.2011 140.917 53.6178V38.3053C140.938 37.722 141.156 37.2428 141.573 36.8678C141.99 36.472 142.49 36.274 143.073 36.274ZM156.26 55.5865C155.698 55.5657 155.219 55.3678 154.823 54.9928C154.427 54.597 154.219 54.1178 154.198 53.5553V49.3365H150.604C150.021 49.3365 149.521 49.1386 149.104 48.7428C148.708 48.3261 148.51 47.8261 148.51 47.2428C148.51 46.6595 148.719 46.1699 149.135 45.774C149.531 45.3574 150.021 45.149 150.604 45.149H154.198C154.26 43.9199 154.469 42.7324 154.823 41.5865C155.24 40.274 155.917 39.1699 156.854 38.274C157.813 37.3574 159.021 36.8574 160.479 36.774H169.167C169.729 36.7949 170.198 37.0032 170.573 37.399C170.969 37.774 171.177 38.2428 171.198 38.8053C171.198 39.3886 171 39.8886 170.604 40.3053C170.229 40.722 169.75 40.9407 169.167 40.9615H161.542C160.75 41.0032 160.094 41.3053 159.573 41.8678C159.052 42.4303 158.729 43.0657 158.604 43.774C158.5 44.2324 158.438 44.6907 158.417 45.149H169.042C169.625 45.149 170.115 45.3574 170.51 45.774C170.927 46.1699 171.135 46.6595 171.135 47.2428C171.135 47.8261 170.938 48.3261 170.542 48.7428C170.125 49.1386 169.625 49.3365 169.042 49.3365H158.417V53.5553C158.396 54.1386 158.177 54.6282 157.76 55.024C157.344 55.399 156.844 55.5865 156.26 55.5865ZM175.729 47.774C175.271 47.774 174.875 47.6178 174.542 47.3053C174.208 46.972 174.042 46.5761 174.042 46.1178C174.042 45.6386 174.208 45.2428 174.542 44.9303C174.875 44.597 175.271 44.4303 175.729 44.4303H181.104C181.563 44.4303 181.958 44.597 182.292 44.9303C182.625 45.2428 182.792 45.6386 182.792 46.1178C182.792 46.5761 182.625 46.972 182.292 47.3053C181.958 47.6178 181.563 47.774 181.104 47.774H175.729ZM186.917 44.9615C187.313 43.9615 187.979 43.0657 188.917 42.274C189.875 41.4615 191.083 41.0449 192.542 41.024H204.292C204.875 41.024 205.365 41.2324 205.76 41.649C206.177 42.0449 206.385 42.5345 206.385 43.1178C206.385 43.7011 206.177 44.2011 205.76 44.6178C205.365 45.0136 204.875 45.2115 204.292 45.2115H192.417C192.021 45.2115 191.677 45.3782 191.385 45.7115C191.094 46.024 190.865 46.399 190.698 46.8365C190.552 47.274 190.479 47.6907 190.479 48.0865V53.5553C190.354 54.8053 189.667 55.4824 188.417 55.5865C187.833 55.5865 187.323 55.399 186.885 55.024C186.469 54.6282 186.26 54.1386 186.26 53.5553V48.1178H186.292C186.292 47.0345 186.5 45.9824 186.917 44.9615ZM215.885 55.2115C214.052 55.149 212.667 54.722 211.729 53.9303C210.792 53.1178 210.115 52.2115 209.698 51.2115C209.281 50.1907 209.073 49.1595 209.073 48.1178C209.073 47.0345 209.271 45.9928 209.667 44.9928C210.083 43.972 210.76 43.0657 211.698 42.274C212.656 41.4615 213.865 41.0449 215.323 41.024H227.198C227.781 41.024 228.271 41.222 228.667 41.6178C229.083 41.9928 229.292 42.4511 229.292 42.9928C229.292 43.5553 229.083 44.0345 228.667 44.4303C228.271 44.8053 227.781 44.9928 227.198 44.9928H215.51C215.052 44.9928 214.646 45.149 214.292 45.4615C213.958 45.774 213.708 46.1803 213.542 46.6803C213.396 47.1803 213.323 47.6699 213.323 48.149C213.323 48.6699 213.396 49.1803 213.542 49.6803C213.708 50.1803 213.958 50.5865 214.292 50.899C214.646 51.1907 215.052 51.347 215.51 51.3678H227.198C227.781 51.3678 228.271 51.5553 228.667 51.9303C229.083 52.3053 229.292 52.7532 229.292 53.274C229.292 53.8157 229.083 54.274 228.667 54.649C228.271 55.024 227.781 55.2115 227.198 55.2115H215.885ZM228.917 48.0553C228.917 48.4511 228.74 48.7949 228.385 49.0865C228.073 49.3574 227.677 49.4928 227.198 49.4928H216.979C216.5 49.4928 216.094 49.3574 215.76 49.0865C215.427 48.7949 215.26 48.4511 215.26 48.0553C215.26 47.6803 215.427 47.347 215.76 47.0553C216.094 46.7845 216.5 46.649 216.979 46.649H227.198C227.677 46.649 228.083 46.7949 228.417 47.0865C228.75 47.3574 228.917 47.6803 228.917 48.0553ZM237.104 57.9303C236.979 59.1803 236.292 59.8574 235.042 59.9615C234.458 59.9615 233.948 59.7636 233.51 59.3678C233.094 58.9928 232.885 58.5136 232.885 57.9303V43.0553C232.906 42.472 233.125 41.9928 233.542 41.6178C233.958 41.222 234.458 41.024 235.042 41.024H248.167C250 41.0865 251.385 41.524 252.323 42.3365C253.26 43.1282 253.938 44.0345 254.354 45.0553C254.771 46.0553 254.979 47.0761 254.979 48.1178C254.979 49.2011 254.771 50.2532 254.354 51.274C253.958 52.274 253.281 53.1803 252.323 53.9928C251.385 54.7845 250.188 55.1907 248.729 55.2115H240.854C240.271 55.2115 239.781 55.0032 239.385 54.5865C238.969 54.1907 238.76 53.7011 238.76 53.1178C238.76 52.5345 238.958 52.0449 239.354 51.649C239.771 51.2324 240.271 51.024 240.854 51.024H248.854C249.25 51.024 249.594 50.8678 249.885 50.5553C250.177 50.222 250.385 49.847 250.51 49.4303C250.656 48.9928 250.729 48.5657 250.729 48.149C250.729 47.7115 250.656 47.2845 250.51 46.8678C250.385 46.4303 250.177 46.0553 249.885 45.7428C249.594 45.4095 249.25 45.2324 248.854 45.2115H237.917C237.375 45.2324 237.104 45.5032 237.104 46.024V57.9303ZM260.948 36.274C261.51 36.2949 261.99 36.5032 262.385 36.899C262.781 37.274 262.99 37.7428 263.01 38.3053V53.6178C262.885 54.8678 262.198 55.5449 260.948 55.649C260.365 55.649 259.854 55.4615 259.417 55.0865C259 54.6907 258.792 54.2011 258.792 53.6178V38.3053C258.813 37.722 259.031 37.2428 259.448 36.8678C259.865 36.472 260.365 36.274 260.948 36.274ZM269.135 40.7115C269.698 40.7324 270.177 40.9407 270.573 41.3365C270.969 41.7115 271.177 42.1803 271.198 42.7428V53.5553C271.073 54.8053 270.385 55.4824 269.135 55.5865C268.552 55.5865 268.042 55.399 267.604 55.024C267.188 54.6282 266.979 54.1386 266.979 53.5553V42.7428C267 42.1595 267.219 41.6803 267.635 41.3053C268.052 40.9095 268.552 40.7115 269.135 40.7115ZM266.51 36.649C266.51 36.0657 266.76 35.5657 267.26 35.149C267.76 34.7324 268.365 34.524 269.073 34.524C269.781 34.524 270.385 34.7324 270.885 35.149C271.385 35.5657 271.635 36.0657 271.635 36.649C271.635 37.2532 271.385 37.7636 270.885 38.1803C270.385 38.597 269.781 38.8053 269.073 38.8053C268.365 38.8053 267.76 38.597 267.26 38.1803C266.76 37.7636 266.51 37.2532 266.51 36.649ZM281.354 55.2115C279.521 55.149 278.135 54.722 277.198 53.9303C276.26 53.1178 275.583 52.2115 275.167 51.2115C274.75 50.1907 274.542 49.1595 274.542 48.1178C274.542 47.0345 274.74 45.9928 275.135 44.9928C275.552 43.972 276.229 43.0657 277.167 42.274C278.125 41.4615 279.333 41.0449 280.792 41.024H292.667C293.25 41.024 293.74 41.2324 294.135 41.649C294.552 42.0449 294.76 42.5345 294.76 43.1178C294.76 43.7011 294.552 44.2011 294.135 44.6178C293.74 45.0136 293.25 45.2115 292.667 45.2115H280.667C280.271 45.2115 279.927 45.3782 279.635 45.7115C279.344 46.024 279.125 46.399 278.979 46.8365C278.854 47.2532 278.792 47.6699 278.792 48.0865C278.792 48.524 278.854 48.9615 278.979 49.399C279.125 49.8157 279.344 50.1907 279.635 50.524C279.927 50.8365 280.271 51.0032 280.667 51.024H292.667C293.25 51.024 293.74 51.2324 294.135 51.649C294.552 52.0449 294.76 52.5345 294.76 53.1178C294.76 53.7011 294.552 54.1907 294.135 54.5865C293.74 55.0032 293.25 55.2115 292.667 55.2115H281.354ZM315.51 53.5553V46.024C315.51 45.5032 315.24 45.2324 314.698 45.2115H303.76C303.365 45.2324 303.021 45.4095 302.729 45.7428C302.438 46.0553 302.219 46.4303 302.073 46.8678C301.948 47.2845 301.885 47.7115 301.885 48.149C301.885 48.5657 301.948 48.9928 302.073 49.4303C302.219 49.847 302.438 50.222 302.729 50.5553C303.021 50.8678 303.365 51.024 303.76 51.024H311.76C312.344 51.024 312.833 51.2324 313.229 51.649C313.646 52.0449 313.854 52.5345 313.854 53.1178C313.854 53.7011 313.646 54.1907 313.229 54.5865C312.833 55.0032 312.344 55.2115 311.76 55.2115H303.885C302.427 55.1907 301.219 54.7845 300.26 53.9928C299.323 53.1803 298.646 52.274 298.229 51.274C297.833 50.2532 297.635 49.2011 297.635 48.1178C297.635 47.0761 297.844 46.0553 298.26 45.0553C298.677 44.0345 299.354 43.1282 300.292 42.3365C301.229 41.524 302.615 41.0865 304.448 41.024H317.573C318.156 41.024 318.656 41.222 319.073 41.6178C319.49 41.9928 319.708 42.472 319.729 43.0553V53.5553C319.729 54.1386 319.51 54.6282 319.073 55.024C318.656 55.399 318.156 55.5865 317.573 55.5865C316.323 55.4824 315.635 54.8053 315.51 53.5553ZM330.542 36.274C331.125 36.274 331.625 36.472 332.042 36.8678C332.458 37.2428 332.677 37.722 332.698 38.3053V41.024H343.323C343.906 41.024 344.406 41.222 344.823 41.6178C345.219 42.0345 345.417 42.5345 345.417 43.1178C345.417 43.7011 345.208 44.2011 344.792 44.6178C344.396 45.0136 343.906 45.2115 343.323 45.2115H332.698V45.8365C332.677 46.6907 332.729 47.4824 332.854 48.2115C333 48.9199 333.333 49.5553 333.854 50.1178C334.375 50.6803 335.031 50.9824 335.823 51.024H343.448C344.031 51.0449 344.51 51.2636 344.885 51.6803C345.281 52.097 345.479 52.597 345.479 53.1803C345.458 53.7428 345.25 54.222 344.854 54.6178C344.479 54.9928 344.01 55.1907 343.448 55.2115H334.76C333.302 55.1282 332.094 54.6386 331.135 53.7428C330.198 52.8261 329.521 51.7115 329.104 50.399C328.708 49.0865 328.5 47.6907 328.479 46.2115V45.2115H324.885C324.302 45.2115 323.813 45.0032 323.417 44.5865C323 44.1907 322.792 43.7011 322.792 43.1178C322.792 42.5345 322.99 42.0449 323.385 41.649C323.802 41.2324 324.302 41.024 324.885 41.024H328.479V38.3053C328.5 37.7428 328.708 37.274 329.104 36.899C329.5 36.5032 329.979 36.2949 330.542 36.274ZM350.635 40.7115C351.198 40.7324 351.677 40.9407 352.073 41.3365C352.469 41.7115 352.677 42.1803 352.698 42.7428V53.5553C352.573 54.8053 351.885 55.4824 350.635 55.5865C350.052 55.5865 349.542 55.399 349.104 55.024C348.688 54.6282 348.479 54.1386 348.479 53.5553V42.7428C348.5 42.1595 348.719 41.6803 349.135 41.3053C349.552 40.9095 350.052 40.7115 350.635 40.7115ZM348.01 36.649C348.01 36.0657 348.26 35.5657 348.76 35.149C349.26 34.7324 349.865 34.524 350.573 34.524C351.281 34.524 351.885 34.7324 352.385 35.149C352.885 35.5657 353.135 36.0657 353.135 36.649C353.135 37.2532 352.885 37.7636 352.385 38.1803C351.885 38.597 351.281 38.8053 350.573 38.8053C349.865 38.8053 349.26 38.597 348.76 38.1803C348.26 37.7636 348.01 37.2532 348.01 36.649ZM366.479 40.5553C367.563 40.5553 368.625 40.6803 369.667 40.9303C370.729 41.1803 371.74 41.5553 372.698 42.0553C373.656 42.5345 374.5 43.1803 375.229 43.9928C375.979 44.8053 376.385 45.774 376.448 46.899V48.2115V53.5553C376.323 54.8053 375.635 55.4824 374.385 55.5865C373.802 55.5865 373.292 55.399 372.854 55.024C372.438 54.6282 372.229 54.1386 372.229 53.5553V52.1803V47.8678C372.188 47.222 371.938 46.6907 371.479 46.274C371.042 45.8365 370.542 45.4928 369.979 45.2428C369.438 44.9928 368.865 44.8053 368.26 44.6803C367.677 44.5553 367.083 44.4928 366.479 44.4928C365.875 44.4928 365.271 44.5553 364.667 44.6803C364.083 44.8053 363.51 44.9928 362.948 45.2428C362.406 45.4928 361.906 45.8365 361.448 46.274C361.01 46.6907 360.771 47.222 360.729 47.8678V52.1803V53.5553C360.625 54.8053 359.948 55.4824 358.698 55.5865C358.115 55.5865 357.604 55.399 357.167 55.024C356.75 54.6282 356.542 54.1386 356.542 53.5553V48.2115V46.899C356.604 45.774 357 44.8053 357.729 43.9928C358.458 43.1803 359.302 42.5345 360.26 42.0553C361.219 41.5553 362.219 41.1803 363.26 40.9303C364.323 40.6803 365.396 40.5553 366.479 40.5553ZM397.948 46.024C397.948 45.5032 397.677 45.2324 397.135 45.2115H386.198C385.802 45.2324 385.458 45.4095 385.167 45.7428C384.875 46.0553 384.656 46.4303 384.51 46.8678C384.385 47.2845 384.323 47.7115 384.323 48.149C384.323 48.5657 384.385 48.9928 384.51 49.4303C384.656 49.847 384.875 50.222 385.167 50.5553C385.458 50.8678 385.802 51.024 386.198 51.024H394.198C394.781 51.024 395.271 51.2324 395.667 51.649C396.083 52.0449 396.292 52.5345 396.292 53.1178C396.292 53.7011 396.083 54.1907 395.667 54.5865C395.271 55.0032 394.781 55.2115 394.198 55.2115H386.323C384.865 55.1907 383.656 54.7845 382.698 53.9928C381.76 53.1803 381.083 52.274 380.667 51.274C380.271 50.2532 380.073 49.2011 380.073 48.1178C380.073 47.0761 380.281 46.0553 380.698 45.0553C381.115 44.0345 381.792 43.1282 382.729 42.3365C383.667 41.524 385.052 41.0865 386.885 41.024H400.01C400.594 41.024 401.094 41.222 401.51 41.6178C401.927 41.9928 402.146 42.472 402.167 43.0553V52.9303C402.167 54.597 401.938 56.1699 401.479 57.649C401.063 58.9615 400.375 60.0657 399.417 60.9615C398.479 61.8782 397.281 62.3782 395.823 62.4615H385.01C384.448 62.4407 383.969 62.2324 383.573 61.8365C383.198 61.4615 383 60.9928 382.979 60.4303C382.979 59.847 383.167 59.347 383.542 58.9303C383.938 58.5136 384.427 58.2949 385.01 58.274H394.76C395.552 58.2324 396.208 57.9303 396.729 57.3678C397.25 56.8053 397.583 56.149 397.729 55.399C397.875 54.649 397.948 53.6803 397.948 52.4928V46.024Z" fill="black"/>
</svg>
